<svg width="743" height="602" viewBox="0 0 743 602" fill="none" xmlns="http://www.w3.org/2000/svg">
<path fill-rule="evenodd" clip-rule="evenodd" d="M252.165 564.108C251.27 559.728 255.365 558.247 257.947 557.273C259.796 556.012 266.647 551.647 271.948 546.259C276.286 541.849 279.24 536.198 280.469 535.659C280.469 535.659 281.734 534.888 281.866 534.315C282.636 530.958 281.993 527.828 281.866 525.793C279.398 525.112 277.42 524.262 275.941 523.075C275.51 523.226 274.863 523.419 274.67 522.756C273.334 513.385 272.757 504.124 271.669 494.745C267.553 459.023 267.088 417.291 274.17 384.665C274.245 383.048 274.111 381.587 273.973 380.198C273.016 380.089 272.437 379.115 271.655 378.533C270.441 377.519 269.004 376.74 269.063 374.969C268.775 374.739 268.809 374.61 268.951 374.318C268.025 370.134 272.154 365.726 273.322 362.277C271.199 340.459 274.088 319.84 272.476 298.016C270.441 297.121 271.809 291.528 271.948 289.221C273.076 274.357 280.428 259.661 293.669 254.805C294.426 254.644 295.563 253.735 296.19 254.345C297.4 253.841 299.011 254.835 299.947 253.691L299.938 253.684C300.727 252.534 301.08 251.073 301.34 249.691C301.296 250.081 301.224 250.467 301.135 250.844C303.417 244.084 303.992 242.276 311.341 241.958C314.651 241.912 319.014 242.016 320.944 245.334C321.735 246.876 321.493 248.647 321.984 250.27C322.885 253.249 326.774 251.809 328.816 253.356C345.158 258.864 358.563 270.107 362.969 288.153C363.869 290.328 364.891 292.493 365.644 294.737C365.761 295.07 366.081 296.198 365.311 296.717L364.939 296.968C369.844 321.06 370.169 341.361 353.69 357.423C352.453 364.325 355.635 373.75 354.412 380.451C355.109 381.49 354.225 382.326 353.334 382.393C353.248 382.443 352.901 382.603 352.807 382.648C354.224 403.681 348.272 432.025 345.649 443.213C345.291 449.93 347.473 455.448 351.961 459.108C356.919 462.317 366.722 476.812 364.905 492.016C367.028 492.454 369.137 492.694 371.174 493.533C380.09 491.879 380.001 509.941 380.569 516.291C381.531 526.924 382.129 542.336 372.517 549.142C369.985 551.072 364.85 553.333 362.219 550.243C361.357 549.154 361.141 548.103 361.48 546.991C357.135 540.54 358.306 532.103 357.907 524.537C356.647 524.457 355.329 525.078 354.11 524.852C352.859 523.693 357.423 524.009 357.896 523.941C357.847 522.774 357.758 521.546 357.643 520.369C356.927 520.52 356.01 520.881 355.322 520.909C354.914 521.013 354.627 520.423 354.872 520.118C355.41 519.58 356.779 519.663 357.55 519.586C357.42 518.602 357.261 517.567 357.084 516.614C356.141 516.579 355.167 517.21 354.274 517.081C354.95 516.607 356.219 516.751 357.042 516.438C356.507 513.371 355.415 510.459 354.401 507.591C351.911 508.67 349.763 508.712 347.333 508.389C346.339 508.549 345.854 508.336 345.693 507.029L345.757 506.946C343.83 494.833 337.614 483.285 326.068 470.189C323.787 467.507 321.21 464.349 319.493 460.818C316.042 453.47 315.453 445.361 312.794 437.73C310.312 430.059 306.918 422.722 303.732 415.451C303.264 419.177 302.637 423 301.984 426.654C299.112 439.604 299.39 453.419 301.504 466.44C304.631 484.677 303.124 503 303.819 521.366C303.81 522.425 303.685 523.388 303.833 524.491C303.852 524.575 303.814 524.676 303.719 524.673L303.538 524.678C302.035 525.835 299.959 526.044 298.193 526.672C297.451 527.288 297.66 528.265 297.592 529.028C297.398 532.313 297.15 535.611 297.458 538.997C298.821 541.741 300.513 541.174 300.859 545.042C301.163 549.458 301.699 554.155 299.652 558.087L300.426 558.228C301.576 560.762 300.874 562.407 298.173 563.479C284.84 568.972 266.079 573.96 252.165 569.813C251.912 570.077 251.545 569.803 251.257 569.389C250.981 568.991 250.779 568.463 250.823 568.157C251.061 566.812 250.734 564.356 252.165 564.108Z" fill="#FFDBB4"/>
<path fill-rule="evenodd" clip-rule="evenodd" d="M275.986 569.912C278.381 569.459 292.144 566.169 300.032 561.891C301.643 561.017 301.247 558.952 300.722 557.611C300.481 556.997 299.912 556.535 300.032 556.409C302.554 553.759 300.668 546.783 300.668 545.446C300.668 543.458 297.603 540.768 298.124 539.697C298.725 538.46 297.986 542.689 296.47 545.045C295.148 547.097 293.075 547.256 292.869 547.166L292.832 547.149L292.805 547.135C292.235 546.806 283.621 533.766 280.057 535.686C278.38 536.589 277.479 540.584 275.604 542.237C271.4 545.945 269.37 551.863 253.721 559.484C252.047 560.3 252.032 562.044 252.373 563.409C252.499 563.912 250.795 563.896 251.05 564.163C251.696 564.843 249.903 568.746 251.304 569.378C256.818 571.861 271.133 570.832 275.986 569.912ZM365.424 492.234C365.424 492.234 364.52 493.424 364.536 493.972C364.671 498.491 365.694 501.819 365.726 504.041L365.728 504.191L365.725 504.246C365.663 505.148 364.353 508.61 361.483 509.347C359.862 509.764 355.122 507.877 355.122 507.877C355.122 507.877 357.83 515.738 358.302 522.851C358.673 528.437 358.374 534.771 359.066 539.697C359.443 542.385 360.811 545.377 362.374 547.451C362.757 547.959 361.092 548.922 361.483 549.323C362.216 550.075 364.028 552.665 369.626 550.66C371.255 550.076 375.996 546.832 378.659 540.633C380.604 536.104 380.787 529.506 381.076 523.653C381.396 517.184 380.208 507.09 378.659 501.593C376.936 495.48 374.795 494.285 374.351 493.947C374.248 493.868 371.024 493.199 370.714 493.162L370.659 493.156L370.617 493.152L370.593 493.142C369.328 492.627 367.881 492.379 365.978 492.265L365.861 492.258L365.424 492.234Z" fill="white"/>
<path fill-rule="evenodd" clip-rule="evenodd" d="M311.297 373.661C309.507 373.567 292.893 378.782 289.604 379.076L289.372 379.096C285.109 379.439 280.995 378.63 276.278 376.489L276.135 376.424L275.985 376.355L274.728 375.772L274.564 377.206C269.055 425.393 269.357 473.037 275.524 518.55L275.712 519.929L275.969 521.765L276.309 522.03C279.372 524.41 283.16 525.841 287.795 526.432C290.901 526.827 294.187 526.853 298.536 526.536L298.877 526.511L299.209 526.485L299.576 526.456L300.042 526.417L300.418 526.296L300.713 526.199L301.013 526.099C301.063 526.082 301.114 526.065 301.165 526.048L301.475 525.943L301.794 525.834L302.117 525.721L302.568 525.563L302.579 525.56L302.735 525.521L302.8 525.504C303.223 525.386 303.521 525.196 303.729 524.845L303.751 524.805L303.78 524.752L304.02 524.275L303.798 523.789C303 522.042 302.513 520.106 302.292 517.837L302.279 517.692L302.261 517.495L302.247 517.318C302.126 515.786 302.738 493.261 302.388 487.552L302.352 486.979L302.332 486.672L302.273 485.802C302.046 482.516 301.782 479.587 301.272 474.721L301.147 473.536L300.934 471.535L300.5 467.523L300.321 465.844L300.189 464.586C299.394 456.961 299.049 452.578 298.874 447.821L298.863 447.514L298.851 447.168L298.839 446.809L298.841 446.637C298.865 443.779 299.14 440.788 299.684 437.41L299.719 437.194L299.754 436.977L299.792 436.75L299.905 436.092L299.987 435.634C300.324 433.749 300.699 431.939 301.335 429.107L301.624 427.829L302.411 424.384C303.199 420.913 303.618 418.934 303.987 416.907L304.039 416.62L304.118 416.172L304.226 415.551L304.304 415.624L304.39 415.705C304.717 416.018 305.001 416.334 305.143 416.555L305.161 416.583L305.177 416.612C308.245 422.006 310.854 427.989 313.285 435.15L313.37 435.4L313.508 435.811L313.704 436.398C315.221 440.973 316.407 445.075 318.608 453.315L318.75 453.846L319.048 454.966L319.82 457.875L319.893 458.065C321.091 461.177 322.927 464.159 325.698 467.564L325.807 467.697L325.921 467.837L325.936 467.854L326.287 468.254L326.626 468.642L326.957 469.022C332.33 475.215 336.315 480.586 339.474 485.945C343.545 492.852 346.098 499.57 347.189 506.354L347.221 506.559L347.254 506.772L347.396 507.704L348.293 507.672C352.831 507.513 356.192 506.054 358.821 503.137C359.856 501.988 360.788 500.611 361.72 498.866L361.788 498.738L361.921 498.485C362.464 497.44 365.735 487.628 365.01 483.753L364.964 483.515L364.916 483.269L364.891 483.144L364.834 482.872C364.337 480.514 356.903 463.877 353.333 460.155L353.209 460.027L353.085 459.899L353.061 459.876L352.633 459.475L352.467 459.318L352.301 459.161L352.104 458.974L351.911 458.788C348.816 455.801 347.284 453.678 346.472 451.196L346.447 451.119L346.409 451.006C345.599 448.578 348.587 426.452 349.121 422.824C351.255 408.317 352.54 392.683 352.328 382.061L352.319 381.661L352.299 380.879L352.071 380.594C350.887 379.112 349.366 378.04 347.433 377.294L347.329 377.254L347.17 377.195C345.933 376.744 344.612 376.434 342.732 376.146L342.616 376.128L342.389 376.094L342.149 376.06L341.906 376.025L339.82 375.746L339.325 375.677C338.783 375.6 338.359 375.535 337.978 375.468L337.712 375.42L337.505 375.38L337.248 375.329L336.583 375.188L336.038 375.734L335.96 375.814C335.873 375.903 335.787 375.991 335.694 376.089L335.637 376.149L335.448 376.349L334.925 376.912C333.65 378.276 333.018 378.83 332.218 379.265L332.18 379.286L332.102 379.327L331.918 379.422L331.553 379.781L331.332 380L331.121 380.21C328.901 382.434 327.452 384.156 326.282 385.997L326.227 386.083L326.121 386.254L326.038 386.388L325.95 386.564C324.232 389.97 322.222 392.538 319.716 394.497L319.615 394.575L319.501 394.663L319.488 394.673L319.108 394.988L318.932 395.132L318.802 395.236L318.676 395.336C316.881 396.749 315.726 397.176 314.707 396.843L314.671 396.831L314.56 396.791L314.495 396.766C314.204 396.651 313.946 396.483 313.533 396.133L313.438 396.052L313.296 395.927L313.194 395.836L312.856 395.531L312.743 395.431L312.621 395.324C311.946 394.737 311.503 394.446 310.922 394.223L310.871 394.204L310.761 394.164L310.061 394.015L309.889 393.977L309.762 393.949C308.568 393.671 308.099 393.383 307.571 392.592L307.543 392.551L307.489 392.467L307.226 392.046L306.747 391.944L306.678 391.928C305.666 391.691 305.379 391.392 305.482 390.873L305.488 390.847L305.496 390.813L305.952 388.91L304.184 389.538L303.534 389.768L303.455 389.796L303.725 389.143L303.827 388.894L303.896 388.723C304.388 387.492 304.608 386.763 304.745 385.889L304.754 385.829L304.771 385.711L304.78 385.469C304.993 379.923 306.074 378.313 311.324 375.862L311.484 375.787L311.654 375.709L315.627 373.888L311.297 373.661Z" fill="#FFCF77"/>
<path fill-rule="evenodd" clip-rule="evenodd" d="M251.593 568.507C263.574 574.161 285.33 567.027 297.102 562.899C300.277 561.696 301.334 561.46 300.445 557.614C298.78 560.989 295.202 561.804 291.773 562.481C280.158 565.263 268.317 570.4 255.896 567.894C254.073 567.592 252.269 566.555 251.738 564.641C251.411 565.452 251.614 566.551 251.483 567.443C251.458 567.799 251.451 568.183 251.593 568.507M300.05 547.477C299.834 545.211 299.488 542.816 298.26 540.814C298.394 544.053 296.543 549.559 292.487 547.724C291.338 547.085 290.694 545.796 289.955 544.761C287.498 541.358 284.348 538.402 280.789 536.254C278.81 536.612 277.959 540.416 276.683 542.008C278.105 542.674 280.683 544.192 280.943 545.762C279.167 545.134 277.532 543.965 275.67 543.554C275.073 544.419 274.441 545.259 273.777 546.069C274.644 546.471 278.143 548.329 278.12 549.257C276.228 548.934 274.395 547.961 272.493 547.561C271.647 548.443 270.877 549.392 270.035 550.276C271.307 550.827 272.651 551.442 273.345 552.725C273.378 552.783 273.297 552.848 273.252 552.792C272.3 551.585 270.66 551.363 269.238 551.091C267.058 553.249 264.616 555.153 261.884 556.577C259.15 558.148 254.994 558.507 253.906 561.915C253.036 565.322 255.75 565.686 258.254 565.927C260.787 566.305 263.338 566.363 265.854 566.142C273.721 565.797 281.157 563.363 288.591 561.237C297.68 559.479 300.629 558.056 300.05 547.477M296.824 527.638C292.008 528.328 287.061 527.903 282.357 526.682C282.683 528.1 282.904 529.542 283.039 530.991H283.028C283.076 531.453 283.197 532.049 283.201 532.616C283.17 533.45 283.182 534.468 282.701 535.162C286.183 537.869 289.583 540.884 292.001 544.659C293.602 547.73 295.732 545.861 296.261 543.4C296.601 539.048 296.441 534.897 296.61 530.724L296.625 530.726C296.669 529.696 296.73 528.666 296.824 527.638M297.386 527.553C297.408 527.703 297.427 527.852 297.447 528.003C297.473 527.844 297.491 527.684 297.528 527.527C297.48 527.535 297.434 527.545 297.386 527.553M299.811 525.351C300.617 525.093 301.417 524.819 302.215 524.537C302.411 524.47 302.736 524.45 302.841 524.242C299.871 517.739 301.613 510.183 301.473 503.232C302.51 484.279 298.374 465.66 297.782 446.82C297.829 436.143 301.36 425.969 303.152 415.541C301.319 411.419 299.61 407.25 297.953 403.057C297.899 402.93 298.104 402.851 298.17 402.965C300.124 406.121 302.071 409.278 303.883 412.522C312.651 426.252 316.594 441.91 320.746 457.523C322.092 461.079 324.253 464.213 326.652 467.129C336.608 478.431 345.9 491.323 348.219 506.594C357.459 506.271 360.128 500.313 363.354 492.798C363.345 492.77 363.337 492.742 363.328 492.714C363.443 492.501 363.524 492.274 363.587 492.039C363.616 492.063 363.646 492.088 363.675 492.113C365.83 487.783 362.781 478.753 361.148 474.234C359.01 469.211 356.13 464.538 352.334 460.656C349.538 458.046 346.643 455.201 345.445 451.458C343.445 445.605 345.211 439.067 346.332 433.186C349.04 418.601 351.667 396.164 351.251 381.272C347.79 376.939 341.718 377.367 336.862 376.338C335.444 377.741 334.234 379.395 332.463 380.303C330.402 382.325 328.393 384.442 326.879 386.918C325.192 390.3 323.059 393.237 320.068 395.513C318.557 396.768 316.377 398.589 314.264 397.82C312.764 397.307 311.931 395.721 310.454 395.189C308.679 394.809 307.615 394.672 306.568 392.996C305.305 392.734 304.1 392.083 304.469 390.543C304.138 390.661 303.807 390.774 303.482 390.893C302.821 391.134 302.109 390.387 302.329 389.734C302.874 388.386 303.505 387.057 303.717 385.6C303.94 379.109 305.533 377.322 311.207 374.72C308.936 374.601 306.711 375.185 304.556 375.832C293.799 379.967 286.744 382.516 275.535 377.324C270.084 425.012 270.174 473.636 276.875 521.161C283.268 526.129 292.179 525.996 299.811 525.351M364.346 497.841C364.325 497.646 364.301 497.452 364.275 497.257C362.928 501.103 360.62 504.759 357.184 506.986C358.499 508.711 361.062 509.224 362.791 507.812C365.806 505.436 364.549 501.138 364.346 497.841M358.614 515.774C359.952 515.665 365.676 515.458 366.363 516.402C365.589 516.746 364.526 516.556 363.694 516.595C362.078 516.664 360.466 516.814 358.867 517.052C358.987 517.707 359.095 518.361 359.184 519.017C360.797 519.179 363.938 519.253 364.962 520.439C363.135 520.745 361.233 520.469 359.4 520.852C359.489 521.75 359.554 522.65 359.602 523.55C360.333 523.631 364.628 524.379 364.624 525.089C363.016 525.313 361.312 525.018 359.673 525.185C360.029 530.577 358.825 546.86 365.838 547.856C371.969 547.516 374.658 537.075 375.492 532.065C377.339 520.393 377.022 507.948 373.361 496.698C372.053 493.569 368.493 493.026 365.483 492.865C365.368 493.394 365.255 493.914 365.128 494.438C366.433 497.548 366.849 501.05 366.885 504.415C366.609 509.252 360.929 512.848 356.805 509.653C357.576 511.632 358.171 513.691 358.614 515.774M366.727 550.571C378.871 547.828 380.863 533.049 380.028 522.182C379.348 514.617 380.166 498.669 373.521 494.224C382.108 502.463 381.363 558.549 362.331 548.76C362.806 550.34 365.246 550.796 366.727 550.571M353.032 383.105C352.955 383.079 352.878 383.042 352.808 382.998C352.826 384.865 352.798 386.731 352.733 388.595C352.858 386.766 352.957 384.936 353.032 383.105M354.033 354.691C370.242 337.718 367.149 318.472 363.426 297.271C357.418 298.025 351.376 299.54 345.965 302.321C347.873 311.679 347.995 320.16 348.817 329.656C349.065 330.829 348.785 333.09 347.202 332.569C332.654 344.707 330.963 369.651 311.872 376.864C304.091 380.188 307.374 382.886 304.803 389.162C306.218 388.889 307.48 387.643 308.088 386.451C308.39 385.858 309.268 386.38 308.973 386.971C308.34 388.242 307.276 389.265 306.015 389.904C306.171 390.225 306.224 390.586 306.241 390.924C308.512 391.412 307.873 392.544 309.407 393.085C310.411 393.376 311.377 393.5 312.245 394.139C315.198 397.03 315.93 396.817 319.1 394.275C319.056 394.045 323.369 389.618 324.705 387.143C325.818 385.079 326.984 383 328.69 381.403C337.045 372.414 345.946 363.929 354.033 354.691M274.406 298.241C275.235 310.241 275.021 320.961 274.843 332.981C274.74 341.065 274.691 349.153 274.959 357.235C281.731 338.841 279.658 318.881 280.62 299.547C278.619 298.846 276.469 298.54 274.406 298.241M322.952 252.112C322.976 252.156 323.002 252.2 323.027 252.243C323.195 252.255 323.365 252.271 323.536 252.291C323.342 252.23 323.147 252.172 322.952 252.112M299.876 253.524C299.882 253.504 299.889 253.484 299.894 253.465C299.879 253.474 299.863 253.485 299.847 253.496C299.859 253.504 299.867 253.513 299.876 253.524M250.414 566.166C250.447 565.209 250.46 563.973 251.526 563.634C251.043 559.511 254.3 557.164 257.719 556.021C260.636 554.146 263.942 552.837 266.622 550.577C265.377 550.331 264.133 550.035 263.028 549.466C262.193 549.037 262.595 547.608 263.499 547.74C265.101 547.962 266.54 548.818 268.045 549.413C268.9 548.675 269.729 547.904 270.511 547.088C269.536 546.89 268.297 546.963 267.73 545.947C267.553 545.629 267.632 545.299 267.845 545.054C268.833 544.004 270.79 545.052 272.016 545.358C272.605 544.645 273.174 543.917 273.732 543.18C272.806 543.091 270.397 543.269 270.868 541.662C271.773 540.405 273.718 541.159 275.026 541.418C276.685 539.274 277.22 535.985 279.813 534.806C279.905 534.286 280.552 534.326 280.983 534.48C281.255 533.113 281.402 532.035 281.466 530.991L281.498 530.989C281.526 529.462 281.47 527.931 281.384 526.411C279.459 525.851 277.549 525.115 275.949 523.909C275.213 524.137 274.321 523.875 274.169 522.967C272.838 513.669 272.246 504.257 271.164 494.926C267.216 460.565 266.356 418.624 273.664 384.676C273.721 383.39 273.634 382.103 273.511 380.826C272.64 380.581 272.12 379.687 271.399 379.169C270.058 378.021 268.694 377.378 268.571 375.374C268.3 375.102 268.268 374.692 268.417 374.336C268.069 372.278 268.581 370.236 269.623 368.457C270.765 366.432 271.844 364.388 272.797 362.262C270.713 340.835 273.54 320.069 271.994 298.536C270.012 297.433 271.257 291.304 271.441 289.261C272.599 275.845 278.559 261.031 291.232 255.451C292.122 254.662 293.363 254.394 294.45 253.96C295.184 253.58 296.379 253.251 296.881 254.135C297.414 253.874 299.131 253.675 299.718 253.223C299.828 253.139 299.898 253.047 299.914 252.944C299.958 252.945 300.009 252.936 300.063 252.924C300.605 252.119 301.122 246.513 301.79 246.913C302.519 248.838 302.014 251.013 301.316 252.957C300.836 254.676 300.176 259.099 297.622 257.968C297.181 257.738 297.454 257.14 297.848 257.092C299.059 256.729 299.329 254.858 299.797 253.762C299.243 254.246 296.716 254.972 296.44 255.126C290.959 268.346 324.098 267.652 326.703 258.538C328.561 255.389 326.958 253.683 323.646 253.178C326.08 256.02 322.998 256.651 321.827 253.864C320.706 251.867 320.196 249.442 320.579 247.145C320.381 246.339 320.215 245.261 321.362 245.478C321.402 245.371 321.464 245.455 321.44 245.531C321.858 246.232 321.567 247.239 321.716 248.048C321.842 249.371 322.199 250.668 322.806 251.839C323.932 252.065 325.053 252.307 326.169 252.572C326.838 251.143 331.179 253.993 332.345 254.329C347.827 259.135 359.6 271.935 363.71 288.081C364.627 290.231 365.617 292.391 366.368 294.608C366.703 295.568 366.703 296.759 365.781 297.381C370.276 319.049 371.373 341.626 354.392 357.878C354.006 359.637 354.263 361.504 354.274 363.295C354.132 367.376 357.45 381.361 353.596 383.17C354.722 401.286 350.5 425.936 346.407 443.413C346.104 449.42 347.828 454.884 352.468 458.674C361.29 465.605 365.006 477.174 366.038 488.199C366.184 489.328 366.041 490.478 365.799 491.588C367.711 491.962 369.501 492.206 371.357 492.942C381.595 490.881 380.865 513.996 381.649 520.854C382.262 530.994 381.879 543.149 373.013 549.788C370.032 552.018 364.77 554.16 361.865 550.783C361.043 549.749 360.595 548.541 360.918 547.22C356.754 540.811 357.738 532.621 357.426 525.329C356.336 525.369 355.147 525.88 354.073 525.599C353.246 525.369 353.141 524.254 353.841 523.81C354.851 523.209 356.224 523.437 357.353 523.397C357.319 522.699 357.269 522.002 357.206 521.304C356.133 521.579 354.596 522.241 354.277 520.666C354.149 519.231 355.873 519.122 356.946 519.06C356.871 518.519 356.787 517.98 356.692 517.442C355.87 517.529 355.002 518.08 354.194 517.817C353.736 517.627 353.577 517.14 353.912 516.746C354.534 516.105 355.598 516.234 356.421 516.035C355.921 513.461 355.017 511 354.147 508.538C352.572 509.113 350.866 509.493 349.185 509.348C348.314 509.156 347.362 509.101 346.482 509.225C345.502 508.953 345.276 507.852 345.147 506.954C345.166 506.922 345.186 506.891 345.207 506.863C342.944 493.012 334.824 481.046 325.72 470.736C323.212 467.787 320.753 464.72 319.049 461.217C315.589 453.896 314.968 445.659 312.32 438.053C310.09 431.146 307.109 424.522 304.187 417.89C303.015 426.625 300.827 435.218 300.576 444.077C300.194 455.285 302.544 466.33 303.547 477.448C305.35 492.081 303.712 506.805 304.582 521.449C304.576 522.485 304.449 523.461 304.589 524.498C304.666 525.071 304.274 525.431 303.862 525.443C302.348 526.487 300.446 526.857 298.706 527.304C298.224 527.692 298.432 528.646 298.347 529.231C298.313 529.819 298.278 530.406 298.244 530.991H298.24C298.087 533.464 297.97 535.606 298.217 538.299C299.919 540.944 301.146 540.522 301.619 544.542C301.88 548.74 302.454 553.278 300.708 557.088C301.489 557.275 301.786 559.78 301.669 560.443C301.47 562.313 299.902 562.904 298.385 563.55C287.302 567.914 263.754 575.098 252.366 570.157C251.55 570.642 250.641 569.691 250.377 568.926C250.029 567.994 250.349 567.091 250.414 566.166" fill="black"/>
<path fill-rule="evenodd" clip-rule="evenodd" d="M288.115 226.71C288.388 224.181 288.035 218.895 288.011 218.574C287.861 216.544 288.764 208.527 290.472 209.266C293.336 206.878 297.152 206.351 300.719 206.099C308.129 205.575 316.013 206.777 321.735 212.028C324.564 214.756 327.319 218.722 327.098 222.852C329.669 226.767 333.294 232.138 330.09 236.715C329.001 238.177 327.271 238.721 325.903 239.829C323.151 242.166 321.425 245.52 318.648 247.843C311.289 254.806 298.794 256.261 291.564 248.341C285.974 242.604 286.878 234.023 287.861 226.71C288.522 221.794 287.582 231.644 288.115 226.71Z" fill="#FFDBB4"/>
<path fill-rule="evenodd" clip-rule="evenodd" d="M310.618 195.374C308.637 194.953 306.602 194.691 304.578 194.77L304.422 194.776C302.899 194.841 300.971 194.982 299.642 195.915C299.566 195.834 299.443 195.793 299.331 195.849C297.753 196.642 296.016 197.216 294.354 197.786C292.7 198.353 290.983 198.728 289.249 198.879C288.597 198.935 288.038 199.677 288.452 200.343C288.55 200.501 288.646 200.661 288.741 200.822C288.581 200.805 288.422 200.786 288.262 200.769C287.738 200.714 287.214 201.304 287.245 201.842C287.264 202.18 287.299 202.514 287.35 202.845C287.15 202.84 286.952 202.872 286.76 202.957C285.788 203.39 285.855 204.609 285.928 205.536C286.029 206.824 286.486 208.187 287.335 209.15C286.701 209.844 286.252 210.672 285.985 211.655C285.791 212.373 285.683 213.137 285.736 213.885L285.753 214.109C285.819 214.92 285.95 215.818 286.504 216.401C286.788 216.702 287.139 216.812 287.473 216.777C287.271 218.646 287.141 220.526 287.019 222.399L286.962 223.294C286.69 227.623 286.486 231.98 286.54 236.317C286.589 240.369 287.35 244.302 289.71 247.593C291.859 250.589 294.945 252.798 298.437 253.637C300.318 254.091 302.239 254.123 304.144 253.834C305.067 253.693 305.996 253.478 306.872 253.139C307.842 252.762 308.539 252.207 309.191 251.375C309.5 250.981 309.351 250.141 308.737 250.22C307.807 250.339 306.959 250.482 306.068 250.771L305.94 250.814C305.053 251.113 304.133 251.336 303.205 251.431C301.305 251.625 299.375 251.43 297.554 250.823C294.59 249.834 292.037 247.629 290.4 244.859C288.458 241.575 288.238 237.848 288.266 234.072C288.296 229.929 288.424 225.783 288.633 221.645L288.669 220.955C288.779 218.825 288.886 216.694 288.98 214.563C289.009 213.894 289.053 213.22 289.133 212.553C289.866 212.101 290.522 211.478 290.95 210.71C291.81 211.084 292.714 211.354 293.545 211.569C295.472 212.068 297.472 212.189 299.433 211.877C299.962 212.107 300.501 212.309 301.049 212.483C301.197 212.552 301.345 212.62 301.493 212.687C302.813 213.282 304.153 213.786 305.546 214.155L305.889 214.245C306.622 214.435 307.419 214.623 308.2 214.682C308.328 214.734 308.466 214.778 308.618 214.817C309.329 214.999 310.066 215.056 310.795 214.992C311.505 214.929 312.018 214.174 311.627 213.466C311.341 212.95 311.053 212.436 310.762 211.922C311.774 212.366 312.819 212.735 313.872 213.048C314.936 213.363 316.015 213.629 317.096 213.874C317.674 214.004 318.254 214.119 318.83 214.249C319.243 214.341 319.876 214.389 320.213 214.675C320.585 214.989 320.69 215.722 320.831 216.174C321.016 216.761 321.19 217.35 321.349 217.947C321.665 219.137 321.924 220.344 322.125 221.563C322.325 222.784 322.46 224.016 322.535 225.253C322.61 226.489 322.577 227.732 322.697 228.962C322.762 229.614 323.427 229.95 323.919 229.494C323.976 229.441 324.034 229.387 324.092 229.332L324.178 229.249C324.598 228.848 325.005 228.423 325.342 227.945C325.403 227.856 325.461 227.764 325.516 227.67C325.525 227.67 325.532 227.668 325.541 227.661L325.634 227.587C326.661 226.782 328.377 225.733 329.378 227.07C329.697 227.496 329.86 228.038 329.996 228.562L330.234 229.498C330.387 230.11 330.532 230.724 330.617 231.35C330.809 232.751 330.712 234.366 329.797 235.489C329.431 235.938 328.927 236.259 328.365 236.343C328.051 236.389 327.741 236.333 327.43 236.291C327.114 236.25 326.81 236.317 326.493 236.285C325.99 236.232 325.771 236.866 325.959 237.265C326.06 237.479 326.18 237.663 326.316 237.819C326.206 237.918 326.102 238.025 326.002 238.138C325.705 238.238 325.438 238.453 325.239 238.738C325.078 238.968 324.994 239.218 324.98 239.481C324.962 239.547 324.947 239.614 324.933 239.682L324.661 240.147C324.601 240.25 324.541 240.35 324.481 240.449C323.788 241.599 323.018 242.572 322.062 243.49C321.142 244.372 320.143 245.162 319.278 246.109L319.176 246.221C318.37 247.116 317.52 248.199 317.836 249.499C317.917 249.834 318.36 250.074 318.65 249.848C319.58 249.121 320.049 247.968 320.839 247.086C321.651 246.177 322.551 245.36 323.366 244.454C324.137 243.598 324.745 242.629 325.203 241.562C325.386 241.774 325.653 241.925 326.022 241.984C326.657 242.084 327.249 241.693 327.525 241.114C327.703 241.197 327.885 241.272 328.068 241.33C329.03 241.641 329.635 240.513 329.272 239.681C329.078 239.234 328.836 238.846 328.535 238.52C329.476 238.384 330.433 237.872 331.051 237.233C332.602 235.627 332.816 233.214 332.467 231.068C332.281 229.93 331.961 228.779 331.546 227.711C331.474 227.525 331.396 227.338 331.311 227.153C331.358 227.152 331.407 227.13 331.437 227.089C331.718 226.685 332.059 226.355 332.267 225.903C332.459 225.488 332.672 225.069 332.824 224.637C333.134 223.753 333.287 222.756 333.388 221.821C333.598 219.908 333.517 218.007 333.239 216.106C332.765 212.867 331.621 209.769 329.937 207.049C330.028 206.999 330.116 206.937 330.198 206.865L330.239 206.828L330.304 206.765C330.785 206.307 330.744 205.448 330.304 204.984L330.166 204.838C329.99 204.654 329.838 204.508 329.555 204.308C329.513 204.279 329.47 204.251 329.427 204.225C329.575 203.936 329.627 203.598 329.523 203.225C329.163 201.926 327.388 201.972 326.263 202.538C325.018 201.369 323.638 200.353 322.143 199.531C318.58 197.574 314.552 196.209 310.618 195.374ZM329.034 229.588C328.368 229.359 327.485 229.839 326.887 230.128C326.129 230.494 325.484 231.036 324.859 231.608C324.548 231.894 324.492 232.362 324.57 232.762C324.577 232.802 324.585 232.843 324.594 232.885C324.676 233.311 325.128 233.647 325.528 233.635C326.365 233.611 326.764 232.85 327.237 232.205C327.293 232.31 327.363 232.406 327.449 232.478L327.508 232.526C327.704 232.684 327.921 232.81 328.18 232.798C328.365 232.788 328.541 232.739 328.704 232.649C329.11 232.423 329.289 231.87 329.178 231.419C329.11 231.136 328.952 230.914 328.747 230.76L328.823 230.705C328.987 230.585 329.137 230.458 329.254 230.271L329.28 230.227H329.27C329.397 229.997 329.314 229.684 329.034 229.588Z" fill="black"/>
<path fill-rule="evenodd" clip-rule="evenodd" d="M286.642 233.041C286.882 229.848 290.713 228.495 292.622 228.094C298.976 226.525 304.383 230.552 311.96 230.635C312.725 230.647 314.912 230.512 315.929 230.229C321.089 228.997 326.244 227.687 331.307 226.071C332.051 226.254 332.271 227.275 331.76 227.857C326.911 229.664 319.492 231.282 315.574 231.466C315.649 236.785 318.321 242.133 322.011 245.074C316.143 251.893 302.457 254.136 294.403 250.556C290.441 249.307 286.26 238.122 286.642 233.041" fill="white"/>
<path fill-rule="evenodd" clip-rule="evenodd" d="M331.716 226.232C331.934 226.223 331.807 225.554 331.315 225.649C324.974 227.208 317.073 230.177 310.555 230.155C305.76 229.99 301.463 227.184 296.642 227.167C293.401 227.232 289.268 227.716 287 230.449C284.008 240.42 290.745 253.982 301.345 254.06L303.351 253.908C310.19 253.378 317.682 252.531 322.091 246.434L322.125 246.465V246.465C322.784 246 322.747 244.997 322.187 244.48L322.17 244.508V244.508C322.16 244.49 322.148 244.472 322.136 244.455L322.144 244.431V244.431C321.928 244.194 321.683 243.971 321.46 243.772L321.459 243.776V243.776C318.149 240.878 315.988 236.496 315.864 231.959C316.959 232.275 335.37 228.264 332.083 227.285C329.733 228.12 327.368 228.874 324.956 229.475C324.916 229.451 324.858 229.457 324.835 229.504C321.884 230.267 318.874 230.704 315.86 231.057C315.863 230.905 315.868 230.754 315.876 230.602C321.235 229.506 326.49 227.878 331.716 226.232ZM288.315 230.278C299.309 224.442 304.766 233.064 315.398 230.69C314.286 235.905 317.032 241.527 320.763 244.935C315.342 249.865 312.996 250.612 305.886 251.412L304.957 251.528C303.56 251.702 302.15 251.864 300.749 251.889C293.482 251.334 287.991 243.388 287.169 236.189L287.165 235.99C287.128 234.163 287.208 232.23 287.978 230.556C288.12 230.504 288.243 230.41 288.315 230.278ZM303.621 234.859C303.241 234.77 302.854 235.205 303.089 235.587C303.85 236.82 305.711 237.298 307.012 237.492C308.52 237.716 309.981 237.539 311.413 236.999C311.489 236.97 311.484 236.827 311.392 236.839C310.032 237.009 308.631 236.884 307.31 236.506C305.97 236.232 304.889 235.296 303.621 234.859ZM293.291 233.971C293.297 233.737 292.201 234.415 292.028 234.506C290.688 235.351 289.138 235.413 287.661 235.745C287.317 235.884 287.318 236.343 287.661 236.482C289.505 236.997 292.302 235.645 293.291 233.971Z" fill="black"/>
<circle cx="285.02" cy="94.7472" r="10.2072" fill="#8FA7DF"/>
<rect x="275.09" y="80.5371" width="32.0781" height="1.16653" transform="rotate(51.1134 275.09 80.5371)" fill="#8FA7DF"/>
<rect x="284.507" y="79.1067" width="30.4323" height="1.16653" transform="rotate(85.1193 284.507 79.1067)" fill="#8FA7DF"/>
<rect x="270.059" y="86.873" width="35.2724" height="1.16653" transform="rotate(25.1012 270.059 86.873)" fill="#8FA7DF"/>
<rect x="269.002" y="94.4606" width="31.7269" height="1.16653" transform="rotate(0.0824589 269.002 94.4606)" fill="#8FA7DF"/>
<rect x="270.147" y="103.504" width="34.9029" height="1.16653" transform="rotate(-35.6027 270.147 103.504)" fill="#8FA7DF"/>
<rect x="276.37" y="112.336" width="40.4303" height="1.16653" transform="rotate(-67.4394 276.37 112.336)" fill="#8FA7DF"/>
<circle cx="382.331" cy="169.526" r="14.2282" fill="#8FA7DF"/>
<rect x="368.489" y="149.718" width="44.715" height="1.62608" transform="rotate(51.1134 368.489 149.718)" fill="#8FA7DF"/>
<rect x="381.616" y="147.725" width="42.4208" height="1.62608" transform="rotate(85.1193 381.616 147.725)" fill="#8FA7DF"/>
<rect x="361.476" y="158.55" width="49.1676" height="1.62608" transform="rotate(25.1012 361.476 158.55)" fill="#8FA7DF"/>
<rect x="360.002" y="169.127" width="44.2254" height="1.62608" transform="rotate(0.0824589 360.002 169.127)" fill="#8FA7DF"/>
<rect x="361.599" y="181.733" width="48.6525" height="1.62608" transform="rotate(-35.6027 361.599 181.733)" fill="#8FA7DF"/>
<rect x="370.273" y="194.045" width="56.3574" height="1.62608" transform="rotate(-67.4394 370.273 194.045)" fill="#8FA7DF"/>
<ellipse cx="315.625" cy="570.8" rx="84.375" ry="7.2" fill="#4F66AF" fill-opacity="0.2"/>
<path fill-rule="evenodd" clip-rule="evenodd" d="M255 251.758C255 302.768 221.347 325.66 179.998 325.66C138.653 325.66 105 302.768 105 251.758C105 156.736 145.931 68 179.998 68C214.069 68 255 156.736 255 251.758Z" fill="#4F66AF"/>
<path d="M180 169.17V368" stroke="#CCE3FF" stroke-width="8" stroke-linecap="square"/>
<path d="M181.365 292.183L209.217 264.615" stroke="#CCE3FF" stroke-width="8" stroke-linecap="square"/>
<path d="M180.91 203.49L198.218 186.359" stroke="#CCE3FF" stroke-width="8" stroke-linecap="square"/>
<path d="M179.09 251.925L153.412 226.51" stroke="#CCE3FF" stroke-width="8" stroke-linecap="square"/>
<path fill-rule="evenodd" clip-rule="evenodd" d="M565 141.171C565 201.512 542.023 256.316 490 256.316C437.977 256.316 415 201.512 415 141.171C415 70.3874 454.312 0 490 0C525.688 0 565 70.3874 565 141.171Z" fill="#4F66AF"/>
<path d="M490 128.158V300" stroke="#B6D4FF" stroke-width="8" stroke-linecap="square"/>
<path d="M491.573 206.701L511.873 181.943" stroke="#B6D4FF" stroke-width="8" stroke-linecap="square"/>
<path d="M487.008 173.089L466.708 148.331" stroke="#B6D4FF" stroke-width="8" stroke-linecap="square"/>
<path fill-rule="evenodd" clip-rule="evenodd" d="M150 328.131C150 370.64 116.347 389.717 74.9982 389.717C33.6532 389.717 0 370.64 0 328.131C0 248.947 40.9306 175 74.9982 175C109.069 175 150 248.947 150 328.131Z" fill="#4F66AF"/>
<path d="M75.0005 259.308V425" stroke="#CCE3FF" stroke-width="8" stroke-linecap="square"/>
<path d="M76.365 361.819L104.217 338.846" stroke="#CCE3FF" stroke-width="8" stroke-linecap="square"/>
<path d="M75.9101 287.908L93.2175 273.633" stroke="#CCE3FF" stroke-width="8" stroke-linecap="square"/>
<path d="M74.0903 328.271L48.4122 307.091" stroke="#CCE3FF" stroke-width="8" stroke-linecap="square"/>
<circle cx="361.475" cy="62.1443" r="7.31111" fill="#8FA7DF"/>
<rect x="354.362" y="51.9661" width="22.9766" height="0.835555" transform="rotate(51.1134 354.362 51.9661)" fill="#8FA7DF"/>
<rect x="361.107" y="50.9415" width="21.7978" height="0.835555" transform="rotate(85.1193 361.107 50.9415)" fill="#8FA7DF"/>
<rect x="350.758" y="56.5043" width="25.2646" height="0.835555" transform="rotate(25.1012 350.758 56.5043)" fill="#8FA7DF"/>
<rect x="350.001" y="61.9391" width="22.7251" height="0.835555" transform="rotate(0.0824589 350.001 61.9391)" fill="#8FA7DF"/>
<rect x="350.822" y="68.4166" width="24.9999" height="0.835555" transform="rotate(-35.6027 350.822 68.4166)" fill="#8FA7DF"/>
<rect x="355.279" y="74.743" width="28.9591" height="0.835555" transform="rotate(-67.4394 355.279 74.743)" fill="#8FA7DF"/>
<circle cx="687.259" cy="135.506" r="11.6334" fill="#8FA7DF"/>
<rect x="675.941" y="119.311" width="36.5605" height="1.32954" transform="rotate(51.1134 675.941 119.311)" fill="#8FA7DF"/>
<rect x="686.674" y="117.681" width="34.6846" height="1.32954" transform="rotate(85.1193 686.674 117.681)" fill="#8FA7DF"/>
<rect x="670.207" y="126.532" width="40.2011" height="1.32954" transform="rotate(25.1012 670.207 126.532)" fill="#8FA7DF"/>
<rect x="669.002" y="135.18" width="36.1602" height="1.32954" transform="rotate(0.0824589 669.002 135.18)" fill="#8FA7DF"/>
<rect x="670.307" y="145.487" width="39.7799" height="1.32954" transform="rotate(-35.6027 670.307 145.487)" fill="#8FA7DF"/>
<rect x="677.399" y="155.553" width="46.0797" height="1.32954" transform="rotate(-67.4394 677.399 155.553)" fill="#8FA7DF"/>
<circle cx="657.259" cy="58.5065" r="11.6334" fill="#8FA7DF"/>
<rect x="645.941" y="42.3108" width="36.5605" height="1.32954" transform="rotate(51.1134 645.941 42.3108)" fill="#8FA7DF"/>
<rect x="656.674" y="40.6805" width="34.6846" height="1.32954" transform="rotate(85.1193 656.674 40.6805)" fill="#8FA7DF"/>
<rect x="640.207" y="49.5321" width="40.2011" height="1.32954" transform="rotate(25.1012 640.207 49.5321)" fill="#8FA7DF"/>
<rect x="639.002" y="58.1798" width="36.1602" height="1.32954" transform="rotate(0.0824589 639.002 58.1798)" fill="#8FA7DF"/>
<rect x="640.307" y="68.4869" width="39.7799" height="1.32954" transform="rotate(-35.6027 640.307 68.4869)" fill="#8FA7DF"/>
<rect x="647.399" y="78.5534" width="46.0797" height="1.32954" transform="rotate(-67.4394 647.399 78.5534)" fill="#8FA7DF"/>
<ellipse cx="625" cy="518" rx="95" ry="9" fill="#4F66AF" fill-opacity="0.2"/>
<path fill-rule="evenodd" clip-rule="evenodd" d="M687.834 511.108C688.729 506.728 684.634 505.247 682.053 504.273C680.204 503.012 673.352 498.647 668.051 493.259C663.713 488.849 660.76 483.198 659.53 482.659C659.53 482.659 658.265 481.888 658.134 481.315C657.364 477.958 658.006 474.828 658.134 472.793C660.602 472.112 662.579 471.263 664.058 470.075C664.49 470.226 665.136 470.419 665.329 469.756C666.665 460.385 667.242 451.124 668.33 441.745C672.447 406.023 672.911 364.291 665.829 331.665C665.754 330.048 665.889 328.587 666.026 327.198C666.984 327.089 667.563 326.115 668.344 325.533C669.558 324.519 670.995 323.74 670.936 321.969C671.224 321.739 671.191 321.61 671.048 321.318C671.974 317.135 667.845 312.726 666.677 309.277C668.8 287.459 665.912 266.84 667.523 245.016C669.558 244.121 668.19 238.528 668.051 236.221C666.923 221.357 659.571 206.661 646.33 201.805C645.574 201.644 644.436 200.735 643.81 201.345C642.599 200.841 640.989 201.835 640.052 200.691L640.061 200.684C639.272 199.534 638.919 198.073 638.66 196.691C638.703 197.081 638.775 197.467 638.865 197.844C636.582 191.084 636.007 189.276 628.659 188.958C625.349 188.912 620.985 189.016 619.055 192.334C618.264 193.876 618.506 195.647 618.015 197.27C617.114 200.249 613.225 198.809 611.183 200.356C594.841 205.864 581.437 217.107 577.031 235.153C576.13 237.328 575.108 239.493 574.355 241.737C574.239 242.07 573.918 243.198 574.688 243.717L575.06 243.968C570.155 268.06 569.83 288.361 586.309 304.423C587.546 311.325 584.364 320.75 585.587 327.451C584.891 328.49 585.774 329.326 586.665 329.393C586.751 329.443 587.098 329.603 587.193 329.649C585.775 350.681 591.727 379.025 594.351 390.213C594.708 396.93 592.526 402.448 588.039 406.108C583.08 409.318 573.277 423.812 575.095 439.016C572.971 439.454 570.862 439.694 568.825 440.533C559.91 438.88 559.998 456.941 559.43 463.291C558.468 473.924 557.87 489.336 567.482 496.142C570.015 498.073 575.149 500.333 577.78 497.243C578.643 496.154 578.858 495.103 578.519 493.991C582.864 487.541 581.693 479.103 582.092 471.537C583.352 471.457 584.67 472.078 585.889 471.852C587.14 470.693 582.577 471.009 582.103 470.941C582.152 469.774 582.241 468.546 582.356 467.369C583.072 467.52 583.989 467.881 584.677 467.909C585.085 468.013 585.373 467.424 585.127 467.118C584.59 466.58 583.22 466.663 582.449 466.587C582.579 465.602 582.739 464.567 582.915 463.614C583.858 463.579 584.832 464.21 585.725 464.081C585.049 463.607 583.781 463.751 582.957 463.438C583.493 460.371 584.584 457.46 585.599 454.591C588.088 455.67 590.236 455.712 592.666 455.389C593.661 455.55 594.145 455.336 594.306 454.029L594.243 453.946C596.169 441.833 602.385 430.285 613.931 417.19C616.212 414.507 618.789 411.349 620.506 407.818C623.957 400.47 624.546 392.361 627.205 384.73C629.687 377.059 633.081 369.722 636.268 362.451C636.735 366.177 637.363 370 638.015 373.655C640.887 386.604 640.609 400.419 638.495 413.44C635.368 431.677 636.875 450 636.18 468.366C636.189 469.425 636.314 470.388 636.167 471.491C636.147 471.575 636.185 471.676 636.281 471.673L636.461 471.679C637.964 472.835 640.04 473.044 641.806 473.672C642.548 474.288 642.339 475.266 642.407 476.028C642.601 479.313 642.849 482.611 642.541 485.997C641.178 488.741 639.486 488.174 639.14 492.042C638.837 496.459 638.301 501.155 640.347 505.087L639.573 505.228C638.424 507.762 639.125 509.407 641.826 510.479C655.159 515.972 673.921 520.96 687.834 516.813C688.087 517.077 688.455 516.804 688.742 516.389C689.019 515.991 689.221 515.463 689.176 515.157C688.938 513.812 689.265 511.356 687.834 511.108Z" fill="#D08B5B"/>
<path fill-rule="evenodd" clip-rule="evenodd" d="M586.766 305.607L587.774 306.704L588.257 307.227L588.962 307.986C590.47 309.604 592.041 311.256 594.324 313.627L600.213 319.734L601.347 320.919L601.902 321.499L599.617 321.798L599.137 321.863L598.765 321.914L598.393 321.967C596 322.313 594.416 322.65 592.842 323.193C590.54 323.989 588.747 325.137 587.408 326.79L587.344 326.869L586.796 327.559L586.673 326.67C586.549 325.771 586.499 324.839 586.503 323.746L586.506 323.322L586.512 322.983L586.519 322.705C586.524 322.549 586.529 322.378 586.536 322.183L586.587 320.718L586.599 320.284L586.604 320.078C586.606 319.978 586.608 319.883 586.609 319.787L586.612 319.49L586.6 319.174L586.585 318.762L586.575 318.467C586.476 315.293 586.527 312.26 586.713 307.08L586.766 305.607ZM612.021 200.406L611.915 201.052C611.323 204.669 612.872 207.661 616.198 209.849C619.242 211.851 623.635 213.053 628.341 213.244C633.008 213.432 637.561 212.608 640.885 210.919C644.448 209.11 646.389 206.45 646.312 203.142L646.309 203.042L646.287 202.408L646.841 202.659C653.793 205.797 659.185 211.786 662.571 219.641C665.664 226.815 666.901 235.2 666.108 243.062L666.084 243.3L666.034 243.765L665.605 243.643C664.839 243.425 662.87 244.043 659.816 245.511L659.559 245.636L658.16 246.658L658.137 247.414C657.203 278.279 660.016 300.296 666.556 313.45L666.756 313.845L666.961 314.244C667.079 314.477 667.213 314.718 667.38 315.007L667.576 315.34L667.873 315.838L668.034 316.112L668.113 316.248C668.431 316.8 668.623 317.177 668.806 317.613C669.096 318.305 669.259 318.963 669.281 319.629L669.283 319.713L669.284 319.74L669.296 319.766C669.393 319.971 669.387 320.218 669.28 320.428L669.264 320.459L669.258 320.469L669.231 320.685L669.057 320.721L669.033 320.745C668.778 320.994 668.436 321.153 667.99 321.27L667.929 321.285L667.869 321.3C667.775 321.322 667.678 321.342 667.567 321.364L667.153 321.439L666.653 321.543L666.025 321.671L665.854 321.708L665.676 321.747C664.627 321.98 663.923 322.209 663.267 322.558C659.963 324.381 656.688 325.257 653.229 325.359C650.473 325.44 647.741 325.058 644.176 324.205L643.449 324.028L643.027 323.923L642.509 323.791C642.347 323.749 642.172 323.704 641.979 323.653L639.471 322.996L638.68 322.792L638.22 322.675C636.431 322.223 635.222 321.957 633.844 321.714C631.43 321.289 629.233 321.116 627.069 321.223L626.903 321.232L626.806 321.237L626.718 321.193C622.269 318.957 618.615 315.71 615.295 311.305L615.07 311.006L614.93 310.817C612.653 307.734 610.932 304.78 607.661 298.666L606.806 297.067L606.205 295.949L605.813 295.225C604.096 292.062 602.987 290.161 601.622 288.068C599.42 284.691 597.182 281.952 594.668 279.674L594.54 279.559L594.524 279.544C594.025 279.045 593.689 278.595 593.477 278.09L593.453 278.031L593.416 277.938L593.482 277.228L593.551 276.468C594.105 270.294 594.692 261.867 595.311 251.19L595.422 249.249L592.403 248.017L591.008 247.453L590.705 247.332L590.348 247.191L589.984 247.049L589.626 246.91C588.089 246.316 586.708 245.819 585.38 245.39L585.081 245.294C581.853 244.268 579.129 243.717 576.867 243.706L576.763 243.706L576.287 243.707L576.304 243.626L576.289 243.625C576.18 243.61 576.077 243.588 575.983 243.556L575.936 243.54L575.89 243.521C575.502 243.355 575.313 242.988 575.464 242.55L575.476 242.516L575.556 242.211C578.353 231.618 582.139 223.31 587.382 216.717L587.541 216.517L587.705 216.315C593.519 209.162 601.154 204.019 611.123 200.701L611.426 200.601L612.021 200.406Z" fill="#C93305"/>
<path fill-rule="evenodd" clip-rule="evenodd" d="M664.013 516.912C661.618 516.459 647.855 513.169 639.967 508.891C638.356 508.017 638.753 505.952 639.277 504.611C639.518 503.997 640.087 503.535 639.967 503.409C637.445 500.759 639.331 493.783 639.331 492.446C639.331 490.458 642.396 487.768 641.875 486.697C641.274 485.46 642.013 489.689 643.529 492.045C644.851 494.097 646.925 494.256 647.13 494.166L647.167 494.149L647.194 494.135C647.764 493.806 656.378 480.766 659.942 482.686C661.619 483.589 662.52 487.584 664.395 489.237C668.599 492.945 670.629 498.863 686.278 506.484C687.953 507.3 687.967 509.044 687.626 510.409C687.5 510.912 689.204 510.896 688.949 511.163C688.303 511.843 690.096 515.746 688.695 516.378C683.182 518.861 668.866 517.832 664.013 516.912ZM574.575 439.234C574.575 439.234 575.479 440.424 575.463 440.972C575.328 445.491 574.305 448.819 574.273 451.041L574.271 451.191L574.275 451.246C574.336 452.148 575.647 455.61 578.516 456.347C580.137 456.764 584.877 454.877 584.877 454.877C584.877 454.877 582.169 462.738 581.697 469.851C581.326 475.437 581.625 481.771 580.933 486.697C580.556 489.385 579.188 492.377 577.626 494.451C577.243 494.959 578.907 495.922 578.516 496.323C577.783 497.075 575.972 499.665 570.374 497.66C568.744 497.076 564.003 493.833 561.341 487.633C559.396 483.104 559.213 476.506 558.923 470.653C558.603 464.185 559.792 454.09 561.341 448.593C563.063 442.48 565.204 441.285 565.648 440.947C565.752 440.868 568.975 440.199 569.285 440.162L569.34 440.156L569.382 440.152L569.406 440.142C570.672 439.627 572.118 439.379 574.021 439.265L574.138 439.258L574.575 439.234Z" fill="#FCF9F9"/>
<path fill-rule="evenodd" clip-rule="evenodd" d="M688.469 515.507C676.488 521.161 654.733 514.027 642.96 509.899C639.786 508.696 638.729 508.46 639.618 504.614C641.282 507.989 644.861 508.804 648.29 509.481C659.904 512.263 671.745 517.4 684.167 514.894C685.99 514.592 687.794 513.555 688.324 511.641C688.651 512.452 688.449 513.551 688.58 514.443C688.604 514.799 688.612 515.183 688.469 515.507M640.013 494.477C640.229 492.211 640.575 489.816 641.803 487.814C641.669 491.053 643.52 496.559 647.576 494.724C648.725 494.085 649.369 492.796 650.108 491.761C652.565 488.358 655.715 485.402 659.274 483.254C661.253 483.612 662.104 487.416 663.38 489.008C661.958 489.674 659.38 491.192 659.12 492.762C660.896 492.134 662.531 490.965 664.393 490.554C664.99 491.419 665.622 492.259 666.286 493.069C665.419 493.471 661.92 495.329 661.943 496.257C663.835 495.934 665.668 494.961 667.57 494.561C668.416 495.443 669.186 496.392 670.028 497.276C668.756 497.827 667.412 498.442 666.718 499.725C666.685 499.783 666.766 499.848 666.811 499.792C667.764 498.585 669.403 498.363 670.825 498.091C673.005 500.249 675.447 502.153 678.179 503.577C680.914 505.148 685.069 505.507 686.157 508.915C687.027 512.322 684.313 512.686 681.809 512.927C679.276 513.305 676.725 513.363 674.209 513.142C666.342 512.797 658.906 510.363 651.472 508.237C642.383 506.479 639.434 505.056 640.013 494.477M642.678 474.553C642.656 474.703 642.637 474.852 642.617 475.003C642.591 474.844 642.573 474.684 642.536 474.527C642.584 474.535 642.63 474.545 642.678 474.553M657.362 482.162C653.88 484.869 650.48 487.884 648.062 491.659C646.461 494.73 644.331 492.861 643.802 490.4C643.373 484.907 643.742 480.164 643.24 474.638C648.055 475.328 653.002 474.903 657.705 473.682C657.139 476.149 656.88 477.085 656.862 479.616C656.893 480.45 656.881 481.468 657.362 482.162M665.157 279.981C665.26 288.065 665.308 296.153 665.041 304.235C658.269 285.841 660.341 265.881 659.38 246.547C661.381 245.846 663.531 245.54 665.593 245.241C664.765 257.241 664.979 267.961 665.157 279.981M626.883 320.825C610.255 312.471 607.955 291.049 594.788 279.248C594.363 278.823 594.011 278.386 593.806 277.871C594.75 267.848 594.681 259.06 595.797 249.047C597.044 246.67 597.536 243.909 598.465 241.379C598.951 239.839 599.541 238.314 599.681 236.697C599.798 236.165 599.007 235.934 598.859 236.437C597.102 240.025 596.228 244.016 594.916 247.799C594.732 247.877 594.486 247.816 594.414 247.612C594.402 247.662 594.39 247.711 594.378 247.761C588.733 245.442 582.913 243.283 576.762 243.299C576.766 243.279 576.771 243.258 576.775 243.238C576.396 243.25 575.601 243.218 575.839 242.64C581.245 221.924 590.951 207.724 611.54 200.978C608.907 217.053 647.22 217.984 646.691 203.021C661.124 209.538 667.341 227.84 665.705 243.25C664.334 242.861 660.762 244.392 659.369 245.281C659.086 239.024 659.791 231.472 659.376 225.877C657.18 254.406 653.082 288.541 666.625 314.427C667.504 316.162 668.938 317.822 668.902 319.86C669.008 319.972 669.018 320.169 668.89 320.313C668.89 320.323 668.89 320.332 668.889 320.341C668.882 320.343 668.874 320.343 668.867 320.343C668.474 320.835 667.647 320.932 667.078 321.041C665.735 321.325 664.321 321.542 663.091 322.197C649.983 329.429 639.701 320.106 626.883 320.825M631.026 333.971C631.66 335.242 632.723 336.265 633.984 336.904C633.829 337.225 633.776 337.586 633.759 337.924C631.488 338.412 632.127 339.544 630.592 340.085C629.589 340.376 628.623 340.5 627.755 341.139C624.802 344.03 624.069 343.817 620.9 341.275C620.944 341.045 616.631 336.618 615.295 334.143C614.182 332.079 613.016 330 611.31 328.403C602.955 319.414 594.054 310.929 585.966 301.691C569.758 284.718 572.851 265.472 576.573 244.271C582.582 245.025 588.624 246.54 594.035 249.321C592.127 258.679 592.005 267.16 591.183 276.656C590.935 277.829 591.214 280.09 592.797 279.569C607.346 291.707 609.036 316.651 628.128 323.864C635.909 327.188 632.625 329.886 635.197 336.162C633.782 335.889 632.52 334.643 631.912 333.451C631.61 332.858 630.732 333.38 631.026 333.971M587.051 326.606C586.722 324.228 586.979 321.86 586.994 319.478C586.817 315.139 586.955 310.91 587.114 306.557C591.676 311.524 596.419 316.322 601.078 321.197C596.116 321.855 590.394 322.396 587.051 326.606M586.967 330.105C587.045 330.079 587.121 330.042 587.191 329.998C587.174 331.865 587.201 333.731 587.266 335.595C587.142 333.766 587.042 331.936 586.967 330.105M581.386 462.774C580.048 462.665 574.324 462.458 573.637 463.402C574.41 463.746 575.474 463.556 576.306 463.595C577.922 463.664 579.534 463.814 581.133 464.052C581.013 464.707 580.905 465.361 580.816 466.017C579.203 466.179 576.062 466.253 575.038 467.438C576.865 467.745 578.767 467.469 580.6 467.852C580.511 468.75 580.446 469.65 580.398 470.55C579.667 470.631 575.372 471.379 575.376 472.089C576.984 472.313 578.688 472.018 580.326 472.185C579.971 477.577 581.175 493.86 574.162 494.856C568.031 494.516 565.342 484.075 564.508 479.065C562.661 467.393 562.978 454.948 566.639 443.698C567.947 440.569 571.507 440.026 574.517 439.865C574.632 440.394 574.745 440.914 574.872 441.438C573.567 444.548 573.151 448.05 573.115 451.415C573.391 456.252 579.071 459.848 583.195 456.653C582.424 458.632 581.829 460.691 581.386 462.774M573.273 497.571C561.129 494.828 559.137 480.049 559.972 469.182C560.652 461.617 559.834 445.669 566.479 441.224C557.891 449.463 558.637 505.549 577.669 495.76C577.194 497.34 574.754 497.796 573.273 497.571M575.653 444.841C575.675 444.646 575.699 444.452 575.724 444.257C577.072 448.103 579.379 451.759 582.816 453.986C581.5 455.711 578.938 456.224 577.209 454.812C574.194 452.436 575.451 448.138 575.653 444.841M617.047 199.112C617.023 199.156 616.997 199.2 616.972 199.243C616.804 199.255 616.635 199.271 616.463 199.291C616.658 199.23 616.852 199.172 617.047 199.112M640.124 200.524C640.117 200.504 640.111 200.484 640.106 200.465C640.121 200.474 640.136 200.485 640.153 200.496C640.14 200.504 640.133 200.513 640.124 200.524M689.649 513.166C689.616 512.209 689.603 510.973 688.537 510.634C689.02 506.511 685.763 504.164 682.343 503.021C679.427 501.146 676.121 499.837 673.441 497.577C674.686 497.331 675.93 497.035 677.035 496.466C677.87 496.037 677.468 494.608 676.563 494.74C674.962 494.962 673.523 495.818 672.018 496.413C671.163 495.675 670.334 494.904 669.552 494.088C670.526 493.89 671.766 493.963 672.333 492.947C672.51 492.629 672.431 492.299 672.217 492.054C671.23 491.004 669.273 492.052 668.047 492.358C667.458 491.645 666.889 490.917 666.331 490.18C667.257 490.091 669.666 490.269 669.195 488.662C668.29 487.405 666.345 488.159 665.037 488.418C663.378 486.274 662.843 482.985 660.25 481.806C660.158 481.286 659.511 481.326 659.08 481.48C658.445 478.295 658.494 476.676 658.679 473.411C660.604 472.851 662.514 472.115 664.114 470.909C664.85 471.137 665.741 470.875 665.894 469.967C666.352 466.768 666.608 463.076 666.929 459.808H667.046C667.655 453.848 668.146 447.871 668.836 441.926C672.783 407.565 673.644 365.624 666.336 331.676C666.278 330.39 666.365 329.103 666.488 327.826C667.36 327.581 667.879 326.687 668.6 326.169C669.941 325.021 671.305 324.378 671.429 322.374C671.699 322.102 671.731 321.692 671.583 321.336C671.93 319.279 671.418 317.236 670.376 315.457C669.234 313.432 668.155 311.388 667.202 309.262C669.286 287.835 666.459 267.069 668.005 245.536C669.987 244.433 668.743 238.304 668.558 236.261C667.401 222.845 661.44 208.031 648.767 202.451C647.878 201.662 646.636 201.394 645.549 200.96C644.815 200.58 643.621 200.251 643.118 201.135C642.585 200.874 640.869 200.675 640.281 200.223C640.172 200.139 640.102 200.047 640.085 199.944C640.042 199.945 639.991 199.936 639.936 199.924C639.394 199.119 638.878 193.513 638.21 193.913C637.481 195.838 637.986 198.013 638.683 199.957C639.164 201.676 639.823 206.099 642.378 204.968C642.818 204.738 642.546 204.14 642.151 204.092C640.94 203.729 640.67 201.858 640.202 200.762C640.757 201.246 643.284 201.972 643.56 202.126C649.041 215.346 615.902 214.652 613.296 205.538C611.439 202.389 613.042 200.683 616.354 200.178C613.92 203.02 617.001 203.651 618.173 200.864C619.294 198.867 619.804 196.442 619.421 194.145C619.618 193.339 619.785 192.261 618.637 192.478C618.598 192.371 618.535 192.455 618.56 192.531C618.141 193.232 618.432 194.239 618.284 195.048C618.158 196.371 617.8 197.668 617.193 198.839C616.067 199.065 614.946 199.307 613.831 199.572C613.161 198.143 608.82 200.993 607.655 201.329C592.173 206.135 580.399 218.935 576.29 235.081C575.373 237.231 574.383 239.391 573.632 241.608C573.296 242.568 573.296 243.759 574.219 244.381C569.724 266.049 568.627 288.626 585.608 304.878C585.993 306.637 585.737 308.504 585.725 310.295C585.867 314.376 582.549 328.361 586.403 330.17C585.277 348.286 589.5 372.936 593.593 390.413C593.895 396.42 592.172 401.884 587.532 405.674C578.71 412.605 574.993 424.174 573.962 435.199C573.815 436.328 573.959 437.478 574.201 438.588C572.289 438.962 570.499 439.206 568.642 439.942C558.404 437.881 559.135 460.996 558.351 467.854C557.738 477.994 558.121 490.149 566.987 496.788C569.968 499.018 575.23 501.16 578.135 497.783C578.957 496.749 579.404 495.541 579.081 494.22C583.245 487.811 582.262 479.621 582.574 472.329C583.664 472.369 584.852 472.88 585.926 472.599C586.753 472.369 586.859 471.254 586.159 470.81C585.149 470.209 583.776 470.437 582.646 470.397C582.681 469.699 582.73 469.002 582.794 468.304C583.866 468.579 585.403 469.241 585.722 467.666C585.851 466.231 584.127 466.122 583.053 466.06C583.128 465.519 583.212 464.98 583.308 464.442C584.13 464.529 584.997 465.08 585.805 464.817C586.263 464.627 586.422 464.14 586.088 463.746C585.466 463.105 584.402 463.234 583.579 463.035C584.079 460.461 584.982 458 585.852 455.538C587.427 456.113 589.133 456.493 590.814 456.348C591.686 456.156 592.637 456.101 593.518 456.225C594.497 455.953 594.724 454.852 594.852 453.954C594.833 453.922 594.814 453.891 594.792 453.863C597.056 440.012 605.175 428.046 614.28 417.736C616.787 414.787 619.247 411.72 620.95 408.217C624.411 400.896 625.032 392.659 627.679 385.053C629.909 378.146 632.89 371.522 635.813 364.89C636.984 373.625 639.173 382.218 639.424 391.077C639.805 402.285 637.455 413.33 636.453 424.448C635.004 436.206 635.776 448.022 635.684 459.808H635.746C635.723 462.651 635.649 465.616 635.481 468.449C635.487 469.486 635.614 470.462 635.474 471.498C635.397 472.071 635.789 472.431 636.201 472.443C637.715 473.487 639.617 473.857 641.357 474.304C641.839 474.692 641.631 475.646 641.716 476.231C641.903 479.513 642.15 481.99 641.846 485.299C640.144 487.944 638.917 487.522 638.444 491.542C638.183 495.74 637.609 500.278 639.355 504.088C638.574 504.275 638.277 506.78 638.394 507.443C638.593 509.313 640.161 509.904 641.678 510.55C652.761 514.914 676.309 522.098 687.697 517.157C688.513 517.642 689.422 516.691 689.686 515.926C690.034 514.994 689.713 514.091 689.649 513.166" fill="black"/>
<path fill-rule="evenodd" clip-rule="evenodd" d="M631.479 140.915C637.163 140.915 643.983 143.816 644.563 143.874L644.578 143.875C644.883 143.875 646.075 144.832 648.155 146.744L645.903 151.37L646.085 151.553C646.957 152.433 647.701 153.236 648.289 153.868C653.087 159.034 653.949 179.314 652.819 186.387C651.688 193.459 649.594 200.38 639.843 200.38C630.093 200.38 619.246 194.206 617.575 192.284C616.461 191.002 615.21 190.388 613.821 190.441C613.764 190.365 613.707 190.29 613.651 190.214L613.447 190.184C611.525 189.891 610.148 189.496 609.316 189.001C607.691 188.032 605.904 182.941 605.904 181.82C605.904 180.709 603.236 172.632 603.183 171.778L603.182 171.754C603.182 171.039 599.697 167.755 599.697 166.712C599.697 165.668 598.994 165.732 599.697 162.056L599.901 160.976C600.649 157.062 602.112 150.582 607.691 147.766C613.821 144.671 625.737 140.915 631.479 140.915Z" fill="#D08B5B"/>
<path fill-rule="evenodd" clip-rule="evenodd" d="M634.956 141.255C633.791 141.069 632.612 140.954 631.478 140.954C625.736 140.954 613.82 144.711 607.69 147.805C602.111 150.621 600.648 157.102 599.9 161.015L599.696 162.095C599.199 164.698 599.406 165.426 599.569 166C599.636 166.236 599.696 166.446 599.696 166.751C599.696 167.322 600.739 168.563 601.684 169.688C602.466 170.619 603.181 171.469 603.181 171.793L603.182 171.817C603.205 172.191 603.731 173.953 604.314 175.908C605.061 178.413 605.903 181.235 605.903 181.859C605.903 182.98 607.69 188.071 609.315 189.04C610.147 189.536 611.524 189.93 613.446 190.223L613.65 190.254C613.707 190.329 613.763 190.405 613.82 190.481C614.764 190.444 615.644 190.716 616.461 191.297L616.601 189.644L616.613 189.507L616.575 189.376L615.784 186.585L615.64 186.076L615.113 186.041L615.113 186.041L632.484 149.709C635.425 149.32 638.662 149.058 641.693 148.881C643.688 148.764 645.59 148.685 647.254 148.631L648.154 146.784C646.075 144.871 644.883 143.915 644.577 143.915L644.562 143.914C644.439 143.901 644.034 143.761 643.419 143.547C641.956 143.039 639.299 142.116 636.4 141.519L632.484 149.709C632.396 149.721 632.308 149.733 632.22 149.745C631.358 149.861 630.529 149.989 629.742 150.127L634.956 141.255ZM629.742 150.127C627.766 150.475 626.064 150.893 624.818 151.391C623.229 152.026 621.846 153.596 620.669 155.765C619.503 157.915 618.6 160.542 617.916 163.113C617.232 165.679 616.774 168.159 616.487 170C616.343 170.919 616.242 171.677 616.178 172.205C616.145 172.468 616.122 172.674 616.107 172.813C616.101 172.862 616.097 172.903 616.094 172.936L616.09 172.971L616.086 173.01L616.085 173.019L616.085 173.021L616.085 173.022L616.085 173.022L616.045 173.435L629.742 150.127Z" fill="#D08B5B"/>
<path fill-rule="evenodd" clip-rule="evenodd" d="M606.744 147.62C609.802 144.203 627.16 138.917 635.942 140.037L636.205 140.073C636.906 140.167 637.597 140.308 638.278 140.501C640.481 141.043 642.757 141.863 644.578 143.234C646.098 144.355 650.892 146.186 649.479 149.119C650.003 150.165 650.198 151.456 649.844 152.486C649.8 152.841 649.696 153.169 649.562 153.508C650.682 155.248 651.568 157.215 652.285 159.086C653.539 163.795 654.319 168.696 654.434 173.5C654.814 182.628 653.863 193.531 646.314 199.434C641.754 203.174 634.61 203.3 629.485 198.662C629.194 198.3 627.826 197.322 628.283 197.15C628.419 197.301 628.558 197.448 628.701 197.593C628.694 197.577 628.693 197.561 628.696 197.543L628.562 197.416C628.31 197.17 627.984 196.814 628.355 196.884C628.372 196.904 628.39 196.922 628.407 196.942C628.486 196.991 628.545 197.034 628.592 197.072L628.615 197.092L628.608 197.084C628.394 196.844 628.266 196.599 628.586 196.755L628.628 196.777C628.77 196.935 628.915 197.086 629.062 197.233C629.06 197.216 629.062 197.198 629.071 197.18L628.934 197.04C628.8 196.902 628.82 196.901 628.886 196.789C628.601 196.369 629.133 196.618 629.17 196.782C629.503 196.7 629.795 197.357 630.009 197.438C639.404 205.044 653.038 198.295 652.817 177.1L652.814 176.686C652.749 169.909 652.208 162.943 649.546 156.808C649.287 156.217 648.997 155.642 648.679 155.086C648.459 154.669 648.224 154.263 647.972 153.867C647.264 153.807 646.566 153.67 645.878 153.459C645.642 153.396 645.408 153.327 645.175 153.245C641.762 153.441 638.425 153.654 635.003 153.856L633.934 153.927C631.035 154.123 628.037 154.437 625.698 156.325C623.402 158.045 623.392 161.434 621.427 163.322C618.625 165.325 618.605 167.13 618.065 170.082C618.105 172.306 619.57 175.539 616.882 176.475C617.335 177.156 616.703 176.829 616.654 176.59C616.648 176.591 616.643 176.593 616.64 176.593C617.044 177.384 616.45 176.886 616.397 176.632C616.365 176.622 616.334 176.598 616.302 176.565C616.709 177.258 616.051 176.772 616.09 176.646C615.303 175.373 613.684 175.175 612.543 175.512C612.529 175.558 612.478 175.562 612.446 175.538C607.593 176.645 608.845 187.226 613.819 186.203C614.031 186.157 614.026 186.265 614.069 186.275C613.954 185.957 614.278 186.087 614.274 186.153L614.294 186.152C614.31 186.151 614.303 186.149 614.315 186.153C614.204 185.504 614.829 186.445 614.78 186.484C614.799 186.472 614.82 186.465 614.839 186.462L614.818 186.401C614.714 186.11 614.723 186.231 614.724 186.064C614.646 185.858 614.64 185.948 614.658 185.814C614.932 185.59 615.013 186.268 615.105 186.318C614.948 186.088 615.072 185.9 615.22 186.025C616.34 188.506 617.787 190.837 619.657 192.674C619.862 192.844 620.069 193.011 620.283 193.169C621.079 193.898 622.299 194.367 623.043 195.014C623.043 195.024 623.038 195.038 623.031 195.051L623.048 195.067V195.067L623.065 195.085L623.324 195.216C623.4 195.284 623.469 195.36 623.529 195.444C623.594 195.523 623.651 195.61 623.7 195.702C623.724 195.815 623.671 195.861 623.569 195.813C623.524 195.797 623.48 195.778 623.436 195.761C623.438 195.765 623.439 195.768 623.442 195.77C623.457 195.794 623.555 196.034 623.442 195.995L623.428 195.99C623.366 195.966 623.304 195.939 623.243 195.913C623.315 196.008 623.381 196.111 623.439 196.198C623.502 196.266 623.54 196.347 623.555 196.438C623.552 196.488 623.526 196.51 623.478 196.503C623.404 196.478 623.332 196.451 623.259 196.423L623.28 196.464C623.331 196.57 623.404 196.748 623.274 196.689C623.164 196.653 623.057 196.611 622.951 196.566C622.942 196.585 622.924 196.591 622.888 196.574C622.549 196.447 622.222 196.292 621.908 196.109C621.633 195.897 621.355 195.69 621.078 195.48C620.818 195.316 620.566 195.133 620.326 194.927C618.721 193.835 617.315 192.447 616.2 190.902C614.335 192.603 610.607 190.978 608.3 189.647C606.26 188.457 605.458 186.257 605.251 183.885C604.82 180.691 602.342 179.598 602.514 172.591C602.51 172.593 602.506 172.593 602.501 172.593C602.411 172.564 602.324 172.527 602.241 172.479C602.156 172.436 602.076 172.385 602.001 172.324L601.908 172.189V172.189C601.86 172.161 601.817 172.131 601.784 172.102L601.767 172.125C601.713 172.194 601.749 172.09 601.752 172.07L601.591 171.839C601.21 171.29 600.791 170.674 600.45 170.182L600.439 170.202C600.431 170.217 600.427 170.228 600.431 170.233C599.619 169.004 598.855 167.521 598.643 166.084C598.393 164.978 598.491 163.837 598.709 162.812C599.646 159.223 602.715 151.101 606.744 147.62ZM628.778 197.256L628.727 197.208L628.771 197.268C628.795 197.298 628.819 197.325 628.858 197.353C628.855 197.344 628.855 197.335 628.857 197.324C628.831 197.303 628.804 197.28 628.778 197.256ZM635.902 141.841C629.947 141.301 624.09 142.683 618.407 144.355L618.015 144.474C614.783 145.445 611.366 146.319 608.636 148.397C604.821 151.474 602.85 156.37 601.131 160.89C599.63 164.248 600.397 168.035 602.66 170.38C602.895 168.05 603.296 165.788 603.924 163.544C604.054 163.193 603.955 163.078 604.238 163.033C604.664 169.079 602.565 173.547 606.718 180.714C608.52 184.095 606.434 186.569 611.522 188.349L611.66 188.404C612.72 188.825 613.878 189.158 614.916 188.922L614.823 188.763C614.728 188.599 614.7 188.519 614.838 188.449C614.834 188.441 614.829 188.433 614.824 188.424C614.712 188.202 614.604 187.977 614.501 187.75C614.459 187.765 614.417 187.775 614.374 187.787C614.402 187.842 614.406 187.897 614.327 187.916C614.048 188.017 613.76 188.057 613.466 188.038L613.403 188.033C613.071 188.012 612.861 187.948 612.674 187.889C612.612 187.878 612.55 187.867 612.489 187.854C611.886 187.713 611.249 187.356 610.836 187.001C606.131 184.187 606.617 174.608 612.417 173.702C612.536 167.671 615.26 157.495 619.781 151.748C623.867 146.461 635.023 144.17 642.785 144.978C642.898 145.018 643.011 145.057 643.125 145.098C644.322 145.21 645.463 145.771 646.662 146.032C645.801 145.353 644.825 144.901 643.82 144.517C641.817 143.226 639.52 142.528 637.302 142.036C636.842 141.917 636.376 141.851 635.902 141.841ZM612.152 178.547C612.464 178.369 612.428 178.541 612.5 178.491C614.743 178.299 617.161 180.366 618.415 182.09C618.316 182.199 618.048 181.878 618.001 181.827C617.994 181.834 617.987 181.839 617.979 181.842L618.014 181.894C618.522 182.661 617.515 181.758 617.421 181.572C617.404 181.581 617.388 181.586 617.369 181.582C617.448 181.665 617.692 181.88 617.734 182.033L617.799 182.09C618.409 182.639 618.358 183.053 617.666 182.272C617.682 182.308 617.688 182.342 617.677 182.368L617.701 182.385C618.041 182.636 618.321 183.334 617.61 182.617C617.684 183.141 616.905 182.129 616.88 182.136C615.532 181.021 613.547 179.938 611.856 179.792L611.798 179.785C611.488 179.743 611.341 179.646 611.45 179.432C611.068 179.337 611.157 179.139 611.338 179.145C611.068 178.958 611.311 178.78 611.468 178.85C611.36 178.536 611.791 178.745 611.831 178.701C612.054 178.338 612.115 178.641 612.152 178.547ZM607.451 159.114C608.528 158.699 611.71 159.943 611.455 161.59C611.304 161.968 610.804 162.185 610.453 161.972L609.995 161.648C609.198 161.085 608.479 160.592 607.622 160.102C607.157 159.858 606.956 159.341 607.451 159.114ZM613.579 156.666L613.163 156.381C610.918 154.834 607.744 152.489 613.373 154.915C614.014 155.205 614.867 155.376 615.217 156.019C615.767 157.205 614.32 157.285 613.579 156.666ZM613.832 149.723C613.652 149.003 615.893 149.848 616.546 150.071L616.645 150.111C617.28 150.36 618.008 150.591 618.387 151.168C618.832 151.965 617.932 152.13 617.374 151.77C616.231 150.983 614.977 150.389 613.832 149.723ZM619.532 146.37C618.27 144.919 621.647 146.309 622.153 146.694L622.167 146.706C622.545 146.986 622.468 147.588 622.114 147.765C621.105 147.786 620.362 146.9 619.532 146.37ZM625.274 144.78C623.268 143.262 625.91 143.984 626.828 144.579C627.454 145.16 626.809 146.14 625.274 144.78Z" fill="#4A312C"/>
<path fill-rule="evenodd" clip-rule="evenodd" d="M653.358 180.041C653.118 176.848 649.287 175.495 647.379 175.094C641.024 173.525 635.618 177.552 628.04 177.635C627.275 177.647 625.088 177.512 624.071 177.229C618.911 175.997 613.756 174.687 608.693 173.071C607.949 173.254 607.729 174.275 608.24 174.857C613.089 176.664 620.508 178.282 624.426 178.466C624.351 183.785 621.679 189.133 617.989 192.074C623.857 198.893 637.543 201.136 645.597 197.556C649.559 196.307 653.74 185.122 653.358 180.041" fill="white"/>
<path fill-rule="evenodd" clip-rule="evenodd" d="M608.284 173.232C608.066 173.223 608.193 172.554 608.684 172.649C615.026 174.208 622.927 177.177 629.445 177.155C634.24 176.99 638.536 174.184 643.358 174.167C646.599 174.232 650.732 174.716 653 177.449C655.992 187.42 649.255 200.982 638.655 201.06L636.648 200.908C629.809 200.378 622.317 199.531 617.909 193.434L617.875 193.465V193.465C617.216 193 617.252 191.997 617.813 191.48L617.829 191.508V191.508C617.84 191.49 617.852 191.472 617.863 191.455L617.856 191.431V191.431C618.072 191.194 618.317 190.971 618.539 190.772L618.541 190.776V190.776C621.851 187.878 624.012 183.496 624.136 178.959C623.04 179.275 604.63 175.264 607.916 174.285C610.267 175.12 612.631 175.874 615.044 176.475C615.084 176.451 615.142 176.457 615.164 176.504C618.115 177.267 621.126 177.704 624.14 178.057C624.137 177.905 624.131 177.754 624.124 177.602C618.764 176.506 613.51 174.878 608.284 173.232ZM651.684 177.278C640.691 171.442 635.234 180.064 624.602 177.69C625.714 182.905 622.967 188.527 619.237 191.935C624.657 196.865 627.003 197.612 634.114 198.412L635.043 198.528C636.44 198.702 637.849 198.864 639.25 198.889C646.518 198.334 652.009 190.388 652.831 183.189L652.835 182.99C652.872 181.163 652.792 179.23 652.022 177.556C651.88 177.504 651.757 177.41 651.684 177.278ZM636.378 181.859C636.758 181.77 637.146 182.205 636.91 182.587C636.149 183.82 634.289 184.298 632.987 184.492C631.48 184.716 630.019 184.539 628.587 183.999C628.51 183.97 628.516 183.827 628.608 183.839C629.967 184.009 631.369 183.884 632.69 183.506C634.029 183.232 635.111 182.296 636.378 181.859ZM646.708 180.971C646.702 180.737 647.798 181.415 647.972 181.506C649.311 182.351 650.861 182.413 652.338 182.745C652.682 182.884 652.682 183.343 652.338 183.482C650.495 183.997 647.697 182.645 646.708 180.971Z" fill="black"/>
<circle cx="601.475" cy="129.144" r="7.31111" fill="#8FA7DF"/>
<rect x="594.362" y="118.966" width="22.9766" height="0.835555" transform="rotate(51.1134 594.362 118.966)" fill="#8FA7DF"/>
<rect x="601.107" y="117.942" width="21.7978" height="0.835555" transform="rotate(85.1193 601.107 117.942)" fill="#8FA7DF"/>
<rect x="590.758" y="123.504" width="25.2646" height="0.835555" transform="rotate(25.1012 590.758 123.504)" fill="#8FA7DF"/>
<rect x="590.001" y="128.939" width="22.7251" height="0.835555" transform="rotate(0.0824589 590.001 128.939)" fill="#8FA7DF"/>
<rect x="590.822" y="135.417" width="24.9999" height="0.835555" transform="rotate(-35.6027 590.822 135.417)" fill="#8FA7DF"/>
<rect x="595.279" y="141.743" width="28.9591" height="0.835555" transform="rotate(-67.4394 595.279 141.743)" fill="#8FA7DF"/>
</svg>
