<svg width="600" height="400" viewBox="0 0 600 400" fill="none" xmlns="http://www.w3.org/2000/svg">
<path d="M157.945 114.061C157.755 112.71 157.369 111.386 156.799 110.123C156.726 109.884 156.599 109.662 156.425 109.47C156.251 109.277 156.035 109.12 155.789 109.007C155.461 108.93 155.117 108.927 154.787 108.997L149.643 109.703C149.213 109.721 148.801 109.865 148.47 110.113C147.8 110.745 148.459 111.763 148.439 112.636C148.416 113.617 147.445 114.413 146.392 114.676C145.317 114.871 144.208 114.859 143.138 114.64L135.946 113.637C138.064 113.03 139.949 111.901 141.387 110.378C142.334 109.372 142.837 107.493 141.469 107.016C141.063 106.916 140.639 106.886 140.22 106.926C136.961 106.949 134.397 104.507 131.346 103.478C129.393 102.863 127.274 102.817 125.29 103.347C123.307 103.878 121.561 104.958 120.303 106.433L124.135 106.599C124.495 106.581 124.853 106.666 125.155 106.843C125.995 107.462 124.951 108.652 125.07 109.621C125.223 110.881 127.087 111.15 128.492 111.277C129.897 111.405 131.679 112.429 131.003 113.542C123.942 115.725 116.757 109.275 109.341 110.069C107.464 110.27 105.692 110.931 103.86 111.348C92.6662 113.889 81.094 107.107 69.6592 108.544C67.1171 108.933 64.6186 109.524 62.1934 110.311C60.6371 110.77 59.0138 111.265 57.883 112.329C56.7522 113.392 56.3218 115.211 57.3931 116.324C54.4404 116.542 51.468 116.288 48.614 115.575C49.3858 115.96 50.0279 116.524 50.4728 117.209C50.9177 117.893 51.1491 118.673 51.1427 119.465C46.5324 120.14 42.0443 121.368 37.7989 123.117C38.5913 124.299 39.5167 125.406 40.5608 126.419L34.7243 129.784C36.6961 130.23 37.7156 132.643 36.5689 134.15C38.6135 133.334 39.8806 131.222 42.0669 130.794C43.4993 130.514 44.9567 131.039 46.3155 131.533C47.6743 132.027 49.1677 132.507 50.5743 132.136C51.981 131.765 53.0185 130.128 52.1247 129.085C58.137 127.511 64.3506 126.639 70.6114 126.493C71.0945 126.438 71.5843 126.522 72.0115 126.731C72.8265 127.239 72.6121 128.335 72.5682 129.224C72.5243 130.114 73.2967 131.283 74.1823 130.882C73.1403 131.693 74.0311 133.219 75.0308 134.072C76.0305 134.925 77.2355 136.102 76.6234 137.211C76.4637 137.5 76.1927 137.732 76.039 138.024C75.5854 138.887 76.3057 139.892 77.1553 140.465C78.0049 141.037 79.0456 141.437 79.6358 142.23C80.226 143.023 79.958 144.412 78.9026 144.522L75.903 141.104C74.8781 142.058 74.1755 143.253 73.8766 144.55C77.0575 146.884 77.536 151.634 74.873 154.442C73.5121 155.877 71.5768 156.749 69.8878 157.868C68.1987 158.988 66.6358 160.582 66.6401 162.466C66.6474 165.721 66.351 168.746 67.7102 171.764C70.2167 177.33 73.1104 182.748 76.3744 187.988C77.2315 189.363 78.3393 190.871 80.0756 191.108C77.8812 186.314 75.9058 181.444 74.1494 176.501C75.2933 176.505 76.6154 176.586 77.286 177.418C77.8413 178.107 77.722 179.043 77.8946 179.879C78.1141 180.689 78.48 181.461 78.9779 182.165L89.457 198.918C90.3257 200.307 91.3221 201.798 92.9824 202.36C94.0438 202.72 95.2719 202.652 96.249 203.17C97.0148 203.575 97.5305 204.296 98.3112 204.678C100.519 205.759 103.588 203.686 105.651 204.976C106.241 205.345 106.616 205.932 107.16 206.354C109.065 207.835 112.191 206.844 114.39 207.949C115.808 208.661 116.542 210.085 117.298 211.375C119.192 214.607 122.257 217.774 126.315 218.031C127.59 218.112 128.893 217.895 130.139 218.15C131.385 218.404 132.612 219.38 132.412 220.513C132.069 222.456 133.138 224.582 132.851 226.532C132.328 230.083 126.715 231.644 126.233 235.2C126.128 235.979 126.293 236.782 126.086 237.544C125.833 238.478 125.052 239.239 124.774 240.167C124.248 241.927 125.652 243.678 127.195 244.861C128.738 246.045 130.578 247.066 131.422 248.723C132.313 250.474 131.875 252.516 132.165 254.424C132.798 258.589 136.807 261.677 140.932 263.668C142.189 264.274 143.538 264.861 144.351 265.914C145.413 267.287 145.307 269.098 145.662 270.739C146.53 274.758 150.3 278.07 150.407 282.162C150.483 285.071 148.681 287.711 147.605 290.455C146.596 293.085 146.231 295.88 146.535 298.648C146.838 301.416 147.804 304.092 149.365 306.495C150.17 307.715 151.133 308.866 151.702 310.188C152.719 312.549 152.389 315.232 153.326 317.619C154.565 320.774 157.969 323.381 157.644 326.714C159.189 329.594 162.602 331.01 166.034 331.867L172.185 333.404C173.362 333.698 174.593 333.995 175.792 333.781C176.991 333.568 178.136 332.675 178.105 331.578C175.089 330.967 171.976 330.318 169.489 328.669C167.003 327.019 165.3 324.081 166.243 321.439C166.681 320.213 167.611 318.798 166.726 317.786C166.22 317.206 165.294 317.054 164.722 316.525C163.831 315.7 164.137 314.314 164.778 313.319C165.419 312.325 166.345 311.435 166.603 310.31C166.734 309.68 166.646 309.03 166.353 308.446C166.06 307.862 165.575 307.373 164.963 307.043C166.104 306.657 167.141 306.059 168.008 305.29C168.808 304.469 169.178 303.204 168.548 302.271C170.418 302.484 172.626 302.589 173.854 301.305C174.834 300.279 174.767 298.746 174.38 297.441C173.992 296.135 173.338 294.867 173.317 293.516C177.632 293.699 181.955 293.568 186.246 293.122C185.625 291.247 184.215 289.662 182.315 288.704C184.258 288.409 186.029 286.321 186.642 284.64C187.256 282.96 187.1 281.129 186.72 279.393C186.575 278.946 186.555 278.474 186.662 278.018C186.881 277.392 187.566 277.011 188.2 276.684L197.845 271.712C198.421 271.453 198.942 271.108 199.387 270.69C200.398 269.625 200.248 268.017 199.731 266.697C199.213 265.377 198.385 264.136 198.185 262.749C197.589 258.599 202.539 255.621 204.209 251.714C204.865 250.181 204.999 248.515 205.126 246.877C205.262 245.117 205.272 243.074 203.767 241.94C202.324 240.853 200.069 241.095 198.56 240.084C197.175 239.158 196.698 237.357 195.186 236.609C193.812 235.929 192.09 236.361 190.563 236.042C187.874 235.479 186.181 232.697 183.435 232.439C181.885 232.294 180.132 232.974 178.861 232.164C177.742 231.45 177.698 230.016 177.484 228.798C177.111 226.907 176.101 225.163 174.59 223.802C173.078 222.442 171.139 221.529 169.032 221.188C167.435 220.958 165.696 221.045 164.336 220.257C162.96 219.459 162.329 217.965 161.248 216.86C159.505 215.079 156.761 214.447 154.19 213.904L143.734 211.698C141.878 211.306 139.485 211.099 138.489 212.558C138.194 213.114 137.985 213.703 137.868 214.309C137.495 215.406 136.744 216.369 135.723 217.059C134.702 217.749 133.463 218.13 132.185 218.148C131.309 216.807 129.889 215.821 128.222 215.396C127.162 215.131 126.027 215.102 125.016 214.711C124.465 214.47 123.975 214.13 123.575 213.713C123.176 213.296 122.876 212.81 122.693 212.285C122.51 211.76 122.448 211.207 122.511 210.66C122.575 210.113 122.762 209.584 123.061 209.104C123.664 208.14 123.897 207.026 123.724 205.932C123.551 204.838 122.981 203.825 122.103 203.051C120.325 201.618 117.753 201.272 115.368 201.415C114.744 200.192 115.788 198.812 116.913 197.924C118.038 197.035 119.405 196.161 119.65 194.834C120.035 192.746 117.067 191.161 114.814 191.783C112.56 192.406 111.122 194.37 110.171 196.306C109.626 197.418 109.162 198.588 108.302 199.524C107.441 200.461 106.055 201.132 104.745 200.831C102.889 200.406 102.172 198.427 101.762 196.748C101.211 194.496 100.657 192.212 100.772 189.908C100.887 187.604 101.753 185.238 103.646 183.679C106.73 181.137 111.462 181.386 115.625 181.792C114.641 180.797 114.884 179.121 115.937 178.185C116.492 177.742 117.16 177.427 117.881 177.268C118.603 177.109 119.357 177.11 120.078 177.272C121.332 177.506 122.462 178.113 123.286 178.994C124.469 180.288 124.805 182.036 125.7 183.505C126.594 184.974 128.604 186.228 130.25 185.439C131.671 184.758 131.897 182.989 131.543 181.579C131.189 180.168 130.438 178.796 130.566 177.355C130.811 174.604 133.987 172.949 136.791 171.816C139.594 170.683 142.804 169.16 143.248 166.429C143.263 165.895 143.376 165.366 143.581 164.864C143.892 164.421 144.324 164.056 144.836 163.805C153.017 158.952 161.335 154.04 170.686 151.388C171.172 151.25 171.23 151.404 171.725 151.296C172.419 150.936 171.959 149.94 171.294 149.539C170.629 149.138 169.74 148.83 169.571 148.127C169.447 147.61 169.786 147.103 169.874 146.58C170.091 145.295 168.378 144.109 167.049 144.623C166.298 143.73 167.784 142.692 168.986 142.395C172.594 141.504 176.299 140.961 180.036 140.775C180.468 140.714 180.909 140.781 181.294 140.967C181.921 141.357 181.841 142.252 181.396 142.809C180.952 143.366 180.26 143.716 179.705 144.188C179.099 144.717 178.668 145.386 178.456 146.121C178.245 146.855 178.263 147.628 178.508 148.355C180.459 149.245 182.58 150.162 184.741 149.849C186.902 149.535 188.82 147.356 187.804 145.615C186.858 143.995 184.017 143.629 183.528 141.853C182.956 139.773 186.236 137.924 185.497 135.887C185.174 134.995 184.183 134.47 183.423 133.826C182.525 133.036 181.915 132.021 181.671 130.914C181.428 129.807 181.563 128.66 182.059 127.623C180.821 127.819 179.549 127.745 178.349 127.408C177.149 127.071 176.057 126.481 175.163 125.687C173.514 124.193 172.198 121.836 169.856 121.903C167.707 121.964 165.855 124.215 163.846 123.528C163.351 123.359 162.83 123.015 162.351 123.217C162.194 123.308 162.062 123.431 161.966 123.575C161.869 123.718 161.81 123.88 161.793 124.048C161.283 126.239 162.161 128.736 160.83 130.63C159.382 132.691 156.032 132.976 154.277 134.835C153.324 135.843 152.954 137.203 152.078 138.266C151.202 139.33 149.343 140.006 148.292 139.079C148.809 138.126 148.95 137.043 148.692 136.009C148.435 134.974 147.794 134.049 146.874 133.383C145.898 132.812 144.846 132.352 143.742 132.016C142.509 131.548 141.336 130.961 140.244 130.266C139.697 129.97 139.252 129.543 138.959 129.033C138.728 128.394 138.759 127.702 139.047 127.082C139.58 125.71 140.521 124.495 141.767 123.568C143.013 122.641 144.518 122.037 146.119 121.822C147.518 121.651 149.148 121.711 150.074 120.754C150.564 120.247 150.821 119.482 151.533 119.276C151.988 119.194 152.46 119.246 152.879 119.425L158.104 121.075C158.687 121.311 159.328 121.407 159.965 121.352C160.281 121.313 160.569 121.169 160.771 120.949C160.973 120.728 161.075 120.447 161.056 120.161C160.889 119.383 159.554 119.009 159.676 118.224C159.744 117.969 159.896 117.739 160.113 117.564C161.998 115.763 164.304 114.358 166.865 113.45C169.426 112.543 172.18 112.154 174.927 112.313C175.587 113.285 174.544 114.436 173.676 115.266C172.808 116.096 172.111 117.579 173.16 118.217C173.591 118.414 174.069 118.511 174.552 118.498C175.838 118.655 177.088 118.995 178.254 119.506C180.059 120.212 181.83 120.983 183.566 121.821C183.413 120.794 183.267 119.711 183.7 118.751C184.134 117.79 185.367 117.037 186.444 117.411C187.482 117.771 188.015 119.005 189.121 119.118C190.596 119.269 191.178 117.313 190.562 116.1C189.945 114.888 188.726 113.873 188.624 112.543C188.555 111.647 188.935 110.534 188.137 109.991C187.853 109.828 187.531 109.727 187.195 109.695L167.265 106.403C166.081 106.208 164.371 106.358 164.319 107.437C164.29 108.039 164.889 108.635 164.624 109.188C164.34 109.78 163.409 109.725 162.731 109.935C161.679 110.259 161.151 111.38 161.252 112.374C161.437 113.362 161.864 114.301 162.501 115.124C161.204 114.637 159.241 114.548 157.945 114.061Z" fill="#3F3D56"/>
<path d="M142.043 98.8766C140.786 98.5033 139.431 98.4859 138.163 98.8267C136.895 99.1676 135.774 99.8502 134.953 100.782C134.625 101.17 134.349 101.704 134.624 102.124C135.018 102.726 136.022 102.489 136.761 102.273C137.849 101.925 139.033 101.899 140.138 102.201C140.832 102.415 141.454 102.793 142.152 103C142.492 103.127 142.864 103.169 143.228 103.121C143.592 103.074 143.935 102.938 144.22 102.728C144.699 102.29 144.729 101.608 144.73 100.994C144.763 100.789 144.745 100.579 144.676 100.381C144.608 100.183 144.491 100.001 144.334 99.8483C144.055 99.7031 143.741 99.6197 143.418 99.6052C142.696 99.4853 142.044 99.1429 141.573 98.6373" fill="#3F3D56"/>
<path d="M149.229 97.0808C148.948 97.067 148.667 97.1185 148.415 97.2301C148.162 97.3418 147.945 97.5099 147.786 97.7184C147.627 97.9268 147.53 98.1685 147.505 98.4203C147.479 98.6721 147.527 98.9255 147.642 99.1561C148.506 99.3675 149.408 99.4203 150.295 99.3113C150.738 99.2497 151.15 99.0719 151.48 98.8003C151.81 98.5287 152.043 98.1756 152.15 97.7853C151.106 97.9559 150.028 97.7712 149.127 97.2672" fill="#3F3D56"/>
<path d="M173.341 94.0816C170.99 94.5302 168.706 95.2265 166.537 96.1559C167.56 96.5087 168.429 97.1469 169.017 97.9766C169.604 98.8062 169.88 99.7834 169.802 100.764C169.71 101.141 169.721 101.531 169.833 101.903C170.083 102.447 170.807 102.651 171.443 102.791C172.587 103.103 173.781 103.24 174.976 103.195C175.573 103.167 176.154 103.006 176.664 102.726C177.175 102.446 177.599 102.056 177.9 101.592C178.073 101.151 178.276 100.72 178.508 100.302C180.034 98.216 184.566 100.738 186.205 98.722C186.782 98.0119 186.729 96.943 187.481 96.3804C187.87 96.1352 188.321 95.9807 188.794 95.9309C192.088 95.3434 195.416 94.918 198.762 94.6566C200.348 94.5328 202.414 94.0218 202.427 92.5935C196.455 91.5408 190.263 92.2885 184.813 94.7202C182.85 95.6029 180.253 97.4595 178.362 96.2894C177.654 95.8512 177.689 94.6714 176.714 94.1787C175.718 93.675 174.398 93.8799 173.341 94.0816Z" fill="#3F3D56"/>
<path d="M192.871 97.3595L195.674 97.843C195.158 97.8224 194.643 97.9009 194.164 98.0732C193.684 98.2454 193.251 98.5075 192.893 98.8419C192.536 99.1763 192.261 99.5753 192.089 100.012C191.917 100.449 191.85 100.914 191.894 101.376C194.519 102.163 197.381 101.397 200.147 101.502C202.912 101.607 206.13 103.38 205.658 105.827C205.515 106.567 205.038 107.307 205.286 108.025C205.46 108.527 205.954 108.884 206.233 109.347C206.814 110.313 206.35 111.533 205.616 112.411C204.882 113.288 203.895 113.988 203.251 114.92C201.649 117.239 202.559 120.237 203.514 122.827C203.79 123.806 204.299 124.72 205.007 125.504C206.421 126.854 208.725 126.971 210.789 126.998C212.291 127.018 214.012 126.951 214.962 125.907C216.202 124.543 215.334 122.416 216.151 120.815C216.892 119.362 218.782 118.738 220.493 118.296C223.629 117.486 226.824 116.797 229.789 115.573C233.47 114.053 236.91 111.685 240.956 111.49C242.091 111.435 243.255 111.555 244.348 111.276C245.441 110.997 246.48 110.148 246.397 109.131C246.326 108.261 245.507 107.623 244.866 106.968C244.226 106.312 243.723 105.304 244.312 104.611L254.917 102.833C254.165 100.994 253.579 98.5729 255.307 97.376C255.93 96.9442 256.765 96.7716 257.295 96.2496C258.2 95.3598 257.745 93.8271 256.701 93.0704C255.657 92.3137 254.245 92.138 252.908 92.0383C248.258 91.6917 243.581 91.9207 238.922 92.1499C229.814 92.598 220.707 93.0461 211.599 93.4941C209.766 93.5843 207.649 93.4465 205.968 94.0079C204.544 94.4832 203.532 95.3556 201.904 95.6621C198.898 96.2279 195.591 95.845 192.871 97.3595Z" fill="#3F3D56"/>
<path d="M243.092 117.247C242.807 117.206 242.514 117.266 242.276 117.413C242.119 117.569 242.025 117.768 242.011 117.978C241.83 118.904 242.045 119.857 242.614 120.647C242.904 121.034 243.304 121.345 243.773 121.547C244.242 121.749 244.762 121.834 245.28 121.794C246.542 121.65 247.473 120.683 248.633 120.212C250.422 119.485 258.018 118.353 252.763 115.805C250.952 114.927 249.782 115.702 248.355 116.281C246.731 117.026 244.912 117.36 243.092 117.247V117.247Z" fill="#3F3D56"/>
<path d="M289.114 95.9212C288.501 96.1462 287.988 96.5472 287.655 97.0616C287.501 97.3228 287.466 97.6269 287.555 97.911C287.645 98.1951 287.852 98.4375 288.136 98.5879C288.365 98.6625 288.608 98.6971 288.851 98.6898L291.346 98.7567C292.406 98.7852 293.73 98.9877 294.014 99.9044C294.226 100.585 293.753 101.46 294.324 101.946C294.569 102.116 294.863 102.219 295.172 102.243C295.994 102.433 296.852 102.457 297.686 102.316C299.501 101.879 298.547 100.885 299.119 99.9992C299.994 98.6446 299.842 99.4646 301.384 98.6883C302.522 98.1149 303.993 97.0748 303.043 95.6135C301.39 93.0722 291.552 94.8295 289.114 95.9212Z" fill="#3F3D56"/>
<path d="M338.354 94.6435L336.905 94.817C333.639 95.2083 330.353 95.6031 327.207 96.4835C328.569 96.9668 329.998 97.2815 331.454 97.4189C332.256 97.4542 333.052 97.5558 333.833 97.7224C335.223 98.0937 336.623 99.0525 337.966 98.5613C338.798 98.2568 339.07 97.4789 339.76 97.0666C340.236 96.782 342.042 96.3212 342.243 96.0339C343.876 93.711 339.608 94.4933 338.354 94.6435Z" fill="#3F3D56"/>
<path d="M344.715 100.553C342.78 101.524 340.984 102.704 339.369 104.066C338.688 104.64 337.993 105.355 338.055 106.191C338.137 107.303 339.457 107.948 340.6 108.382L345.231 110.142C345.793 109.431 345.278 108.45 344.698 107.752C344.117 107.054 343.427 106.246 343.684 105.405C343.976 104.446 345.279 104.119 346.372 103.954C348.152 103.685 352.954 103.707 352.377 101.132C351.697 98.0981 346.502 99.6561 344.715 100.553Z" fill="#3F3D56"/>
<path d="M343.784 272.24C343.343 273.385 343.301 274.735 344.063 275.735C344.919 276.857 346.632 277.276 348.113 276.991C349.589 276.639 350.904 275.88 351.873 274.821C352.76 273.934 353.489 272.93 354.036 271.845C354.799 270.152 355.337 268.385 355.639 266.58L357.077 259.805C357.398 258.29 357.386 253.648 354.285 255.161C353.438 255.574 351.476 258.836 350.589 259.761C348.988 261.429 348.777 263.047 347.934 265.067C346.879 267.597 344.759 269.706 343.784 272.24Z" fill="#3F3D56"/>
<path d="M507.567 306.912C506.553 306.557 505.568 306.136 504.621 305.653C503.671 307.997 503.166 310.467 503.127 312.96L510.07 309.434C511.115 308.903 512.299 308.166 512.276 307.089C512.286 306.956 512.255 306.824 512.187 306.705C512.12 306.586 512.018 306.486 511.892 306.415C511.738 306.359 511.57 306.342 511.406 306.364C510.376 306.441 509.437 306.895 508.466 307.212C507.495 307.528 506.359 307.695 505.468 307.226" fill="#3F3D56"/>
<path d="M544.195 309.006C543.433 309.192 542.688 309.432 541.968 309.723C540.375 310.451 539.291 311.833 537.857 312.791C536.485 313.708 534.833 314.212 533.212 314.701C532.735 315.08 532.954 315.842 533.472 316.174C534.028 316.458 534.667 316.587 535.305 316.544C536.99 316.577 538.765 316.592 540.24 315.862C541.072 315.378 541.85 314.823 542.564 314.207C544.289 312.915 546.361 312.062 548.411 311.239C549.158 310.986 549.848 310.615 550.45 310.145C551.738 309.005 551.829 307.247 549.971 306.86C548.469 306.546 545.624 308.591 544.195 309.006Z" fill="#3F3D56"/>
<path d="M560.378 299.518C560.462 298.734 560.346 297.943 560.039 297.205C559.732 296.467 559.242 295.801 558.606 295.258C558.587 296.827 558.534 298.498 557.551 299.796C556.851 300.72 555.752 301.344 554.985 302.225C554.218 303.105 553.877 304.501 554.777 305.273C555.352 305.666 556.053 305.883 556.776 305.891C558.568 306.08 560.642 306.186 561.899 305.024C562.585 304.39 562.918 303.451 563.755 302.985C564.067 302.867 564.345 302.688 564.569 302.461C564.915 301.969 564.366 301.319 563.748 301.142C563.13 300.964 562.449 301.047 561.828 300.879C561.208 300.71 560.638 300.083 560.956 299.576" fill="#3F3D56"/>
<path d="M531.615 242.001C530.675 242.206 529.702 242.258 528.741 242.153C527.146 241.89 525.904 240.811 524.617 239.926C521.555 237.834 517.834 236.667 513.987 236.593C510.487 236.533 506.955 237.384 503.518 236.791C503.743 237.912 504.811 238.752 505.952 239.252C507.092 239.752 508.351 240.003 509.496 240.493C511.331 241.285 512.787 242.644 513.596 244.321C513.965 245.094 514.197 245.935 514.756 246.61C515.899 247.99 518.064 248.293 519.976 248.18C522.468 248.033 525.07 247.39 527.389 248.223C529.162 248.86 530.431 250.254 531.912 251.337C533.393 252.42 535.479 253.224 537.179 252.443C535.413 251.929 533.876 250.923 532.792 249.57C531.708 248.217 531.134 246.589 531.155 244.923C532.822 245.061 537.626 245.007 537.367 242.464C537.148 240.309 533.047 241.768 531.615 242.001Z" fill="#3F3D56"/>
<path d="M509.798 259.538C510.094 258.08 511.714 256.793 511.21 255.382C510.861 254.407 509.6 253.925 508.459 253.901C507.318 253.877 506.196 254.182 505.055 254.211C504.312 254.175 503.568 254.185 502.826 254.239C500.561 254.573 499.164 256.704 497.03 257.462C495.731 257.923 494.273 257.835 492.923 258.153C489.858 258.876 487.919 261.475 485.777 263.571C482.315 266.942 477.806 269.302 472.832 270.346C471.09 270.708 469.217 270.94 467.832 271.956C465.997 273.301 465.546 275.607 465.138 277.701C464.01 283.484 462.287 289.161 459.991 294.658L467.268 295.492C468.652 295.651 470.085 295.806 471.418 295.438C472.387 295.11 473.305 294.671 474.148 294.133C477.389 292.327 481.017 291.152 484.796 290.683C486.701 290.449 488.699 290.406 490.488 291.041C492.276 291.677 493.81 293.119 493.96 294.84C494.733 294.624 495.558 294.601 496.344 294.772C497.131 294.944 497.852 295.305 498.428 295.815C499.568 296.857 500.314 298.194 500.561 299.637C500.753 300.531 500.945 301.601 501.869 301.976C502.622 302.282 503.487 301.953 504.311 301.894C507.109 301.693 509.431 304.621 512.181 304.116C515.13 303.576 515.854 299.611 518.731 298.817C520.384 298.361 522.702 298.916 523.493 297.536C524.191 296.32 522.799 294.917 522.942 293.555C523.119 291.879 525.323 291.167 527.021 290.452C532.877 287.986 535.656 280.912 532.819 275.694C531.137 272.603 527.829 270.17 527.218 266.774C526.748 264.161 527.895 261.114 526.039 259.058C525.095 258.012 523.497 257.434 522.935 256.186C522.581 255.4 522.723 254.508 522.533 253.678C522.343 252.848 521.536 251.98 520.622 252.195C517.971 252.82 517.125 260.17 515.706 261.956C513.548 264.671 509.119 262.882 509.798 259.538Z" fill="#3F3D56"/>
<path d="M460.796 244.778C459.89 244.55 458.901 244.326 458.033 244.651C457.165 244.977 456.658 246.121 457.354 246.689C462.805 246.498 468.289 246.309 473.693 246.973C479.919 247.739 486.081 249.635 492.335 249.077C488.763 248.131 485.131 247.375 481.46 246.812L475.338 245.762C473.695 245.454 472.036 245.223 470.366 245.073C466.874 244.814 464.23 245.642 460.796 244.778Z" fill="#3F3D56"/>
<path d="M466.252 227.741C465.8 227.707 465.239 227.678 465.005 228.027C464.782 228.36 465.038 228.801 464.917 229.175C464.753 229.686 464.007 229.817 463.42 229.747C462.832 229.678 462.197 229.511 461.676 229.765C461.412 229.927 461.214 230.162 461.111 230.433C461.008 230.705 461.006 230.999 461.105 231.272C461.318 231.814 461.662 232.306 462.113 232.714C462.883 233.585 463.76 234.374 464.727 235.068C466.601 236.309 469.139 236.907 470.319 238.709C470.485 239.058 470.741 239.367 471.065 239.611C471.632 239.933 472.37 239.688 472.98 239.438L475.118 238.561C475.503 238.436 475.847 238.227 476.117 237.951C476.606 237.356 476.306 236.511 475.896 235.87C475.486 235.229 474.961 234.566 475.049 233.831C475.206 232.522 477.082 232.021 477.854 230.9C478.631 229.771 478.125 228.315 478.215 226.99C478.32 225.44 479.405 223.423 477.659 222.265C476.175 221.281 474.757 222.191 473.691 223.277C471.445 225.569 470.382 228.05 466.252 227.741Z" fill="#3F3D56"/>
<path d="M479.228 204.581C479.958 205.835 481.479 206.583 482.275 207.805C483.138 209.129 483.04 210.839 483.975 212.122C484.936 213.439 486.868 214.138 487.406 215.635C487.994 217.27 486.66 219.257 487.723 220.685C487.922 220.919 488.172 221.113 488.458 221.255C488.744 221.397 489.06 221.484 489.386 221.511C489.712 221.538 490.04 221.504 490.35 221.411C490.66 221.318 490.946 221.168 491.188 220.971C491.636 220.533 491.876 219.955 491.857 219.361C491.837 218.766 491.56 218.202 491.083 217.789C490.454 217.273 489.55 217.051 489.024 216.449C488.751 216.102 488.568 215.703 488.491 215.284C488.205 214.073 488.25 212.818 488.625 211.627C488.765 211.325 488.801 210.992 488.727 210.671C488.491 210.054 487.559 210.01 486.906 209.723C485.421 209.073 485.457 207.193 485.717 205.728C485.544 206.703 481.675 205.045 481.27 204.493C480.465 203.396 480.903 201.28 480.744 200.068C479.006 200.819 478.336 203.047 479.228 204.581Z" fill="#3F3D56"/>
<path d="M440.25 223.878C439.536 223.16 438.46 222.41 437.503 222.842C436.772 223.172 436.571 224.079 436.858 224.767C437.206 225.435 437.743 226.009 438.415 226.434C440.411 227.911 442.559 229.244 444.3 230.96C447.415 234.033 449.065 238.178 452.452 241.008C453.133 241.664 454.035 242.102 455.019 242.255C456.006 242.338 457.114 241.771 457.228 240.887C457.321 240.159 456.756 239.507 456.203 238.968C454.887 237.683 453.447 236.501 452.204 235.158C451.631 234.643 451.27 233.967 451.182 233.242C451.176 232.52 451.91 231.763 452.691 231.942C451.742 231.724 451.038 230.306 449.645 230.039C448.481 229.816 448.2 230.463 446.815 229.929C444.173 228.912 442.1 225.736 440.25 223.878Z" fill="#3F3D56"/>
<path d="M502.326 154.015C501.568 153.813 500.823 153.574 500.094 153.299C498.133 152.771 495.537 154.065 495.799 155.888C495.972 157.099 497.229 157.916 497.922 158.966C498.951 160.524 498.677 162.501 498.136 164.246C498.003 164.786 497.751 165.297 497.394 165.748C496.895 166.224 496.298 166.609 495.636 166.883C492.987 168.216 490.651 169.997 488.757 172.128C488.551 172.324 488.408 172.567 488.342 172.831C488.248 173.446 488.938 173.894 489.327 174.408C490.193 175.548 489.567 177.083 489.653 178.461C489.64 178.655 489.682 178.85 489.776 179.026C489.87 179.202 490.013 179.353 490.191 179.466C490.713 179.704 491.331 179.3 491.614 178.84C492.552 177.314 491.845 174.864 493.606 174.128C493.939 173.989 494.343 173.93 494.565 173.667C494.918 173.251 494.578 172.634 494.756 172.136C495.024 171.388 496.164 171.355 497.038 171.388C498.544 171.445 500.05 171.265 501.487 170.857C502.051 170.736 502.563 170.47 502.96 170.091C503.486 169.502 503.439 168.663 503.334 167.914C502.807 164.177 501.488 160.565 499.449 157.273C500.995 157.45 502.678 157.604 504.013 156.88C504.76 156.475 505.656 155.264 505.286 154.439C504.7 153.135 503.641 154.233 502.326 154.015Z" fill="#3F3D56"/>
<path d="M304.036 174.567C304.221 175.458 304.403 176.397 304.078 177.255C303.752 178.113 302.729 178.83 301.762 178.567C301.012 178.363 300.579 177.686 300.047 177.17C297.085 174.3 290.402 175.962 288.573 172.411C287.826 170.962 288.333 169.226 287.824 167.697C287.503 166.812 286.863 166.049 286.006 165.527C285.149 165.004 284.123 164.752 283.089 164.81C282.146 164.932 281.228 165.178 280.364 165.54C274.58 167.619 268.506 168.982 262.312 169.592C261.135 169.656 259.97 169.847 258.843 170.158C256.3 170.986 254.562 173.102 253.325 175.262C252.088 177.422 251.175 179.76 249.517 181.678C247.774 183.695 245.332 185.107 243.055 186.634C242.177 187.142 241.446 187.829 240.923 188.64C240.429 189.55 240.457 190.608 240.495 191.619L240.961 203.905C241.02 205.485 241.096 207.122 241.884 208.536C242.868 210.302 244.812 211.459 246.16 213.019C247.536 214.622 248.253 216.603 248.19 218.626C248.161 219.439 248.071 220.401 248.777 220.912C249.206 221.162 249.708 221.291 250.22 221.284L268.737 222.645C271.994 222.884 275.604 223.277 277.73 225.504C278.734 226.556 279.54 228.067 281.078 228.18C281.737 228.228 282.379 227.985 283.038 227.939C284.702 227.82 286.164 228.954 287.086 230.202C288.483 232.105 289.116 234.378 288.884 236.647C288.732 238.071 288.24 239.455 288.134 240.883C287.731 246.314 292.861 251.033 292.961 256.476C293.019 259.678 291.326 262.669 289.675 265.508C292.339 269.131 290.157 273.955 291.218 278.191C292.225 282.209 295.958 285.355 296.888 289.388C297.314 291.234 297.338 293.506 299.152 294.457C299.948 294.805 300.831 294.964 301.715 294.917C307.047 294.974 312.318 293.897 317.097 291.774C319.34 290.775 321.665 289.284 322.056 287.064C322.372 285.274 321.361 283.272 322.39 281.713C323.603 279.875 326.711 280.021 328.496 278.608C331.392 276.316 329.134 271.944 330.307 268.643C331.362 265.675 334.992 264.098 336.792 261.435C337.5 260.289 338.008 259.053 338.298 257.769C339.123 254.701 339.636 251.572 339.832 248.421C339.88 246.506 340.037 244.595 340.303 242.695C342.243 231.876 354.16 224.632 358.029 214.239C358.398 213.246 358.572 211.924 357.588 211.363C357.004 211.113 356.343 211.051 355.714 211.187L347.178 212.153C346.118 212.273 344.994 212.385 344.021 211.989C343.047 211.594 342.349 210.489 342.866 209.649C344.315 207.292 341.333 204.314 340.008 201.898C336.44 195.395 332.191 189.21 327.319 183.428C327.007 183.131 326.811 182.75 326.762 182.344L329.185 182.416C328.367 179.783 327.018 176.901 324.167 175.937C322.56 175.394 320.781 175.582 319.067 175.666C314.158 175.907 308.895 175.242 304.036 174.567Z" fill="#3F3D56"/>
<path d="M319.071 115.218C320.356 116.442 321.795 117.74 323.654 117.954C326.937 118.331 329.298 115.284 330.8 112.637C330.856 113.312 331.203 113.94 331.767 114.389C332.331 114.838 333.068 115.072 333.821 115.04C334.631 114.918 335.405 114.647 336.093 114.243C342.597 111.053 349.883 109.362 357.296 109.324C357.224 108.82 357.364 108.31 357.687 107.893C358.009 107.476 358.493 107.181 359.044 107.065C360.551 106.796 361.909 107.966 362.636 109.181C363.363 110.395 363.816 111.804 364.971 112.713C366.126 113.622 368.363 113.583 368.819 112.266C369.257 111.002 367.789 109.924 366.57 109.178C365.351 108.433 364.066 107.054 364.887 105.954C371.115 104.716 377.382 103.474 383.755 103.228C384.84 103.262 385.921 103.095 386.931 102.737C387.903 102.309 388.675 101.338 388.414 100.395C387.023 100.688 385.567 100.603 384.23 100.151C382.893 99.6981 381.737 98.8986 380.909 97.8539C389.751 97.199 399.157 96.6407 406.994 100.375C407.934 102.187 403.141 103.695 404.423 105.329C404.832 105.85 405.652 105.911 406.362 105.923C411.808 106.014 417.285 106.103 422.67 105.365C424.638 105.095 426.625 104.715 428.601 104.933C431.891 105.298 434.706 107.268 437.943 107.91C439.26 108.172 440.738 108.181 441.848 107.493C442.959 106.805 443.436 105.239 442.526 104.345C445.574 101.664 450.633 102.328 454.654 103.612C458.675 104.895 462.484 106.965 466.74 107.252C469.792 107.457 472.886 106.72 475.902 107.188C477.797 107.483 479.561 108.239 481.413 108.704C484.916 109.583 488.621 109.398 492.258 109.44C501.538 109.552 510.717 111.189 519.339 114.27C520.461 114.597 521.489 115.142 522.35 115.866C523.152 116.637 523.561 117.835 523.022 118.773L514.112 117.604C514.952 119.088 517.123 119.34 518.887 119.852C520.651 120.364 522.48 122.112 521.42 123.477C519.509 122.931 517.777 124.645 516.811 126.223C515.846 127.801 514.67 129.691 512.667 129.787C510.874 129.873 508.705 128.502 507.536 129.726C509.151 131.554 510.534 133.539 511.659 135.642C512.814 137.802 513.636 140.522 512.075 142.465C511.83 142.812 511.457 143.071 511.022 143.198C509.747 143.488 508.919 142.088 508.005 141.24C506.853 140.171 505.11 139.868 503.55 139.367C501.99 138.866 500.347 137.879 500.225 136.396C500.149 135.473 500.692 134.615 501.092 133.762C501.764 132.325 502.058 130.768 501.95 129.211C501.863 127.96 501.472 126.657 500.47 125.783C499.468 124.908 497.739 124.631 496.664 125.432C496.162 125.805 495.76 126.403 495.108 126.426C493.957 126.465 493.073 124.664 492.146 125.279C492.255 125.934 492.104 126.603 491.719 127.168C488.954 129.326 484.708 128.413 481.144 129.175C479.45 129.61 477.827 130.246 476.32 131.066C475.756 131.282 475.276 131.644 474.941 132.105C474.496 132.881 474.987 133.874 475.771 134.39C476.602 134.848 477.537 135.134 478.506 135.228C482.851 135.967 487.259 137.11 490.689 139.614C494.118 142.119 496.368 146.259 495.282 150.106L486.715 142.758C487.04 145.843 487.225 148.937 487.269 152.039C487.324 152.645 487.232 153.254 486.997 153.824C486.387 155.035 484.731 155.442 483.281 155.71C482.877 155.778 482.494 155.923 482.158 156.134C481.821 156.345 481.538 156.617 481.327 156.934C481.116 157.25 480.981 157.602 480.933 157.968C480.885 158.335 480.923 158.706 481.046 159.057C481.561 160.565 482.846 161.741 484.023 162.912C485.199 164.083 486.357 165.414 486.511 166.985C486.665 168.556 485.345 170.327 483.592 170.218C482.263 170.135 481.277 169.067 480.71 167.986C480.143 166.904 479.806 165.698 478.955 164.779C476.377 161.997 470.587 163.189 468.278 160.222C467.689 160.822 467.281 161.546 467.092 162.327C466.903 163.107 466.939 163.918 467.198 164.683C468.272 164.079 469.743 164.64 470.55 165.517C471.357 166.394 471.738 167.519 472.372 168.504C473.227 169.833 474.588 171.011 474.708 172.543C474.676 173.122 474.687 173.702 474.74 174.28C474.952 175.207 475.826 175.874 476.432 176.649C477.841 178.454 477.772 180.933 476.863 182.98C475.955 185.027 474.322 186.738 472.706 188.397C469.882 191.294 467 194.174 463.652 196.58C462.697 197.267 461.677 197.942 461.083 198.901C460.488 199.861 460.457 201.208 461.371 201.938C460.717 201.968 459.544 202.257 458.89 202.286C458.66 199.931 458.61 197.564 458.74 195.202C456.158 194.09 453.379 197.069 453.712 199.622C454.045 202.175 456.102 204.224 457.567 206.432C458.638 208.048 459.434 209.931 459.077 211.783C458.719 213.635 456.877 215.343 454.791 215.18C451.472 214.92 450.084 210.644 446.798 210.155C446.508 210.094 446.204 210.121 445.933 210.232C445.445 210.472 445.36 211.058 445.333 211.557C445.199 214.005 445.082 216.551 446.147 218.808C447.705 222.11 451.729 224.883 450.885 228.388C446.337 226.491 443.973 221.914 442.899 217.517C441.826 213.121 441.647 208.505 439.723 204.349C438.261 206.03 435.19 204.64 433.855 202.877C432.589 201.205 431.81 199.271 430.582 197.577C429.354 195.882 427.473 194.365 425.223 194.272C422.864 194.174 420.819 195.627 419.02 197C417.54 198.128 416.021 199.302 415.157 200.862C413.898 203.132 414.228 205.809 414.167 208.344C414.101 211.085 413.454 213.977 411.373 215.983C409.291 217.99 405.45 218.689 403.154 216.88C401.955 215.936 401.375 214.526 400.858 213.172C398.367 206.645 396.291 199.996 394.643 193.258C394.257 194.796 392.752 196.778 391.315 195.872C390.992 195.629 390.731 195.327 390.548 194.986C387.867 190.907 382.901 188.46 377.884 186.993C372.867 185.526 367.588 184.842 362.626 183.23C359.846 182.326 357.19 181.139 354.711 179.691C354.079 180.525 353.711 181.496 353.644 182.502C353.577 183.508 353.814 184.511 354.331 185.406C355.432 187.155 357.922 188.167 360.054 187.556C361.156 187.24 362.086 186.554 363.179 186.215C364.272 185.875 365.74 186.042 366.218 186.987C366.675 187.892 365.984 188.986 366.327 189.931C366.849 191.37 369.267 191.481 370.112 192.79C370.741 193.764 370.224 195.058 369.326 195.844C368.428 196.63 367.229 197.061 366.133 197.608C362.575 199.384 360.046 202.415 356.937 204.773C353.828 207.131 349.441 208.852 345.736 207.34C346.619 203.326 341.292 200.379 340.312 196.383C339.989 195.068 340.156 193.671 339.696 192.389C339.029 190.534 337.195 189.258 335.69 187.852C333.865 186.128 332.443 184.093 331.508 181.867C330.573 179.642 330.145 177.271 330.247 174.895C330.329 173.243 330.667 171.565 330.248 169.955C329.828 168.346 328.344 166.788 326.504 166.861C322.301 167.027 317.007 167.308 314.802 164.093C314.015 162.945 313.673 161.264 314.81 160.385C315.613 159.765 316.798 159.824 317.852 159.917L327.321 160.753C329.535 160.948 331.929 161.109 333.829 160.07C335.73 159.031 336.553 156.273 334.794 155.051C333.508 154.157 331.204 154.206 330.831 152.785C330.519 151.603 331.978 150.261 331.19 149.272C330.625 148.563 329.355 148.76 328.586 149.291C327.816 149.823 327.258 150.6 326.396 151.002C324.885 151.708 323.08 151.036 321.455 150.58C319.829 150.123 317.65 150.084 316.861 151.439C315.98 152.955 317.643 154.941 316.768 156.459C315.611 158.467 311.693 157.324 310.068 159.051C308.204 161.033 311.337 163.987 310.708 166.519C309.905 166.876 309.013 167.04 308.119 166.995C307.224 166.95 306.358 166.697 305.605 166.262C304.864 165.809 304.274 165.186 303.897 164.456C303.519 163.727 303.37 162.919 303.463 162.12C303.619 160.981 304.28 159.818 303.837 158.742C303.478 157.872 302.505 157.354 301.6 156.905L292.399 152.342C291.545 153.764 292.625 155.527 293.975 156.596C295.326 157.664 297.018 158.469 297.905 159.874C298.466 160.849 298.592 161.978 298.257 163.033C297.922 164.087 297.15 164.987 296.101 165.549C295.969 165.63 295.82 165.685 295.662 165.71C295.505 165.734 295.343 165.728 295.189 165.691C295.042 165.614 294.914 165.511 294.812 165.388C294.711 165.266 294.638 165.126 294.597 164.978C292.974 161.249 290.536 157.572 286.639 155.624C282.742 153.676 277.142 154.077 274.587 157.358C273.98 158.138 273.572 159.026 273.044 159.85C270.234 164.228 264.212 166.301 258.585 166.165C258.035 166.193 257.487 166.077 257.008 165.833C256.098 165.269 256.139 164.073 256.278 163.089L256.869 158.913C256.988 158.074 257.16 157.147 257.899 156.624C258.942 155.886 260.445 156.352 261.773 156.335C262.778 156.292 263.745 155.974 264.542 155.421C265.34 154.869 265.928 154.111 266.229 153.248C266.497 152.377 266.495 151.457 266.224 150.587C265.952 149.717 265.421 148.93 264.688 148.31C264.08 147.797 263.263 147.153 263.585 146.462C263.713 146.27 263.886 146.107 264.092 145.982C264.299 145.857 264.533 145.775 264.779 145.74C267.163 145.118 269.683 144.956 272.028 144.222C274.372 143.489 276.646 141.989 277.202 139.817C277.372 139.151 277.449 138.345 278.115 138.014C278.45 137.888 278.809 137.822 279.171 137.821C280.443 137.659 281.6 137.075 282.416 136.185C283.232 135.295 283.647 134.163 283.58 133.013C284.703 132.308 286.278 132.826 287.365 133.576C288.452 134.325 289.412 135.316 290.734 135.639C293.2 136.241 295.582 134.282 298.137 134.273C299.211 134.269 300.323 134.61 301.334 134.283C302.359 133.952 302.97 133.036 303.757 132.36C304.543 131.684 305.923 131.271 306.649 132L306.031 127.889C307.276 128.171 308.574 128.211 309.838 128.006C311.102 127.801 312.303 127.356 313.359 126.7L305.367 124.276C305.089 124.214 304.832 124.091 304.62 123.918C304.039 123.356 304.616 122.481 305.088 121.843C306.219 120.316 306.408 117.8 304.55 117.04C303.281 116.521 301.825 117.144 300.607 117.754L294.774 120.673C294.589 121.668 295.945 122.232 296.785 122.902C297.293 123.307 297.653 123.842 297.817 124.434C297.981 125.026 297.941 125.649 297.704 126.221C297.466 126.793 297.041 127.287 296.484 127.638C295.928 127.99 295.266 128.181 294.586 128.189C294.97 128.637 295.237 129.157 295.367 129.71C295.497 130.264 295.487 130.836 295.337 131.385L291.412 131.639C290.972 131.718 290.514 131.638 290.139 131.416C289.719 131.081 289.776 130.495 289.679 129.999C289.444 128.801 288.137 127.961 286.804 127.746C285.47 127.531 284.106 127.807 282.785 128.079C282.225 128.26 281.609 128.248 281.058 128.043C280.742 127.859 280.502 127.587 280.375 127.269C279.796 126.009 280.337 124.529 281.267 123.451C282.197 122.374 283.47 121.586 284.613 120.689C287.347 118.536 289.355 115.74 290.412 112.617C292.572 111.804 294.809 110.701 296.969 109.888C300.3 108.375 304.035 107.725 307.755 108.013L315.072 108.138C317.238 108.175 319.463 108.223 321.466 108.964C323.469 109.705 325.229 111.308 325.367 113.249C325.409 113.468 325.388 113.694 325.306 113.904C325.224 114.115 325.083 114.303 324.898 114.451C324.615 114.59 324.295 114.655 323.973 114.638C321.953 114.702 321.091 115.154 319.071 115.218Z" fill="#3F3D56"/>
<path d="M260.753 135.798C261.038 135.556 261.244 135.247 261.347 134.906C261.45 134.565 261.447 134.205 261.336 133.866C260.641 133.625 259.884 133.563 259.152 133.687C258.419 133.811 257.739 134.117 257.19 134.569C256.756 134.962 256.383 135.405 256.079 135.887C255.117 137.295 254.267 138.976 254.824 140.55C254.869 140.721 254.953 140.883 255.069 141.026C255.185 141.168 255.331 141.288 255.5 141.379C255.749 141.469 256.019 141.507 256.287 141.49C257.346 141.488 258.404 141.43 259.456 141.315C260.101 141.244 260.851 141.08 261.101 140.541C261.429 139.832 260.635 139.03 260.866 138.292C261.018 137.961 261.249 137.665 261.542 137.423C261.688 137.301 261.799 137.15 261.869 136.983C261.938 136.815 261.963 136.636 261.941 136.458C261.848 136.112 261.256 135.915 261.043 136.216" fill="#3F3D56"/>
<path d="M266.245 129.408C265.304 129.214 264.334 129.159 263.373 129.246C263.161 129.24 262.95 129.283 262.762 129.371C262.579 129.492 262.446 129.664 262.385 129.861C262.182 130.445 262.232 131.077 262.524 131.629C262.817 132.182 263.331 132.616 263.964 132.844C264.309 132.915 264.639 133.034 264.943 133.197C265.755 133.763 265.238 134.919 265.391 135.831C265.564 136.855 266.669 137.715 266.466 138.735C266.306 139.538 265.35 140.174 265.504 140.979C265.666 141.821 266.857 142.074 267.806 142.142C268.356 142.228 268.923 142.17 269.437 141.974C269.952 141.658 270.319 141.181 270.466 140.637C270.854 139.598 271.018 138.503 270.947 137.409C270.943 136.912 270.803 136.423 270.541 135.984C270.255 135.637 269.938 135.312 269.594 135.011C267.775 133.112 269.69 130.279 266.245 129.408Z" fill="#3F3D56"/>
<path opacity="0.8" d="M505.439 278.169C505.439 278.169 366.122 206.395 306.144 219.994C306.144 219.994 179.034 232.271 164.302 259.281C164.302 259.281 123.896 145.953 109.165 142.176" stroke="#6C63FF" stroke-width="2" stroke-miterlimit="10"/>
<path opacity="0.8" d="M164.302 259.281C187.662 203.373 398.11 141.42 398.11 141.42C368.227 148.22 306.144 219.994 306.144 219.994C306.144 219.994 174.825 134.243 109.165 142.176C109.165 142.176 398.321 150.675 505.439 278.169" stroke="#6C63FF" stroke-width="2" stroke-miterlimit="10"/>
<path d="M109.165 147.653C112.536 147.653 115.268 145.201 115.268 142.176C115.268 139.151 112.536 136.698 109.165 136.698C105.794 136.698 103.062 139.151 103.062 142.176C103.062 145.201 105.794 147.653 109.165 147.653Z" fill="#6C63FF"/>
<path d="M164.302 264.758C167.673 264.758 170.405 262.306 170.405 259.281C170.405 256.256 167.673 253.803 164.302 253.803C160.932 253.803 158.199 256.256 158.199 259.281C158.199 262.306 160.932 264.758 164.302 264.758Z" fill="#6C63FF"/>
<path d="M398.11 146.898C401.481 146.898 404.213 144.445 404.213 141.42C404.213 138.395 401.481 135.943 398.11 135.943C394.74 135.943 392.007 138.395 392.007 141.42C392.007 144.445 394.74 146.898 398.11 146.898Z" fill="#6C63FF"/>
<path d="M505.439 283.646C508.809 283.646 511.542 281.194 511.542 278.169C511.542 275.144 508.809 272.691 505.439 272.691C502.068 272.691 499.336 275.144 499.336 278.169C499.336 281.194 502.068 283.646 505.439 283.646Z" fill="#6C63FF"/>
<path d="M306.144 225.472C309.515 225.472 312.247 223.019 312.247 219.994C312.247 216.969 309.515 214.517 306.144 214.517C302.774 214.517 300.041 216.969 300.041 219.994C300.041 223.019 302.774 225.472 306.144 225.472Z" fill="#6C63FF"/>
</svg>
